<svg width="153" height="61" viewBox="0 0 153 61" fill="none" xmlns="http://www.w3.org/2000/svg">
<mask id="path-1-outside-1_1_14" maskUnits="userSpaceOnUse" x="0" y="11" width="153" height="28" fill="black">
<rect fill="white" y="11" width="153" height="28"/>
<path d="M1.47656 37V17.7695H1.75781L4.53516 22.2695V37H1.47656ZM1.47656 14.3594V12.3906H4.11328L17.1211 33.2383V37H15.6094L1.47656 14.3594ZM14.0625 25.2578V12.3906H17.1211V29.7578H16.8398L14.0625 25.2578ZM20.2148 15.3789C20.2148 14.6523 20.5547 14.1367 21.2344 13.832C21.4688 13.7383 21.7031 13.6914 21.9375 13.6914C22.6406 13.6914 23.1562 14.0195 23.4844 14.6758C23.5781 14.9102 23.625 15.1445 23.625 15.3789C23.625 16.082 23.2969 16.5977 22.6406 16.9258C22.4062 17.0195 22.1719 17.0664 21.9375 17.0664C21.2109 17.0664 20.6836 16.7383 20.3555 16.082C20.2617 15.8477 20.2148 15.6133 20.2148 15.3789ZM20.4609 37V18.4727H23.4141V37H20.4609ZM25.5234 37L30.5156 27.3672L25.6641 17.9805H28.6523L32.2031 24.2734L35.7539 17.9805H38.7773L33.9258 27.3672L38.8828 37H35.8945L32.2031 30.3906L28.5117 37H25.5234ZM40.5 31.7969V23.1133C40.5 22.0117 40.9922 20.9336 41.9766 19.8789C43.1953 18.6133 44.7188 17.9805 46.5469 17.9805V20.8281C45.1641 20.8281 44.2031 21.4023 43.6641 22.5508C43.5 22.9023 43.418 23.2539 43.418 23.6055V31.3398C43.418 32.207 43.8164 32.9453 44.6133 33.5547C45.1758 33.9766 45.8203 34.1875 46.5469 34.1875V37.0352C44.3203 37.0352 42.5977 36.1328 41.3789 34.3281C40.793 33.4375 40.5 32.5938 40.5 31.7969ZM48.0586 37.0352V34.1875C49.3008 34.1875 50.1914 33.625 50.7305 32.5C50.918 32.125 51.0117 31.7617 51.0117 31.4102V23.6055C51.0117 22.6445 50.6016 21.8828 49.7812 21.3203C49.2656 20.9922 48.6797 20.8281 48.0234 20.8281V17.9805C50.1797 17.9805 51.8438 18.8594 53.0156 20.6172C53.6016 21.4844 53.8945 22.3164 53.8945 23.1133V31.7969C53.8945 32.9453 53.4023 34.0586 52.418 35.1367C51.2695 36.3789 49.8164 37.0117 48.0586 37.0352ZM56.5664 37V23.1133C56.5664 21.9883 57.0703 20.8867 58.0781 19.8086C59.3203 18.543 60.8555 17.9102 62.6836 17.9102V20.8281C61.4883 20.8281 60.5742 21.2969 59.9414 22.2344C59.6836 22.6328 59.5547 23.043 59.5547 23.4648V37H56.5664ZM64.2305 20.8281V17.9102C66.4102 17.9102 68.1094 18.7891 69.3281 20.5469C69.9844 21.4609 70.3125 22.3164 70.3125 23.1133V37H67.3242V23.4648C67.3242 22.7383 66.9609 22.0938 66.2344 21.5312C65.6484 21.0625 64.9805 20.8281 64.2305 20.8281ZM73.0547 37V12.3906H76.1133V23.1133H79.2773V26.1016H76.1133V37H73.0547ZM81.0352 26.1016V23.1133H84.1641V12.3906H87.2578V37H84.1641V26.1016H81.0352ZM90 31.7969V23.1133C90 22.0117 90.4922 20.9336 91.4766 19.8789C92.6953 18.6133 94.2188 17.9805 96.0469 17.9805V20.8281C94.6641 20.8281 93.7031 21.4023 93.1641 22.5508C93 22.9023 92.918 23.2539 92.918 23.6055V31.3398C92.918 32.207 93.3164 32.9453 94.1133 33.5547C94.6758 33.9766 95.3203 34.1875 96.0469 34.1875V37.0352C93.8203 37.0352 92.0977 36.1328 90.8789 34.3281C90.293 33.4375 90 32.5938 90 31.7969ZM97.5586 37.0352V34.1875C98.8008 34.1875 99.6914 33.625 100.23 32.5C100.418 32.125 100.512 31.7617 100.512 31.4102V23.6055C100.512 22.6445 100.102 21.8828 99.2812 21.3203C98.7656 20.9922 98.1797 20.8281 97.5234 20.8281V17.9805C99.6797 17.9805 101.344 18.8594 102.516 20.6172C103.102 21.4844 103.395 22.3164 103.395 23.1133V31.7969C103.395 32.9453 102.902 34.0586 101.918 35.1367C100.77 36.3789 99.3164 37.0117 97.5586 37.0352ZM106.066 31.9375V18.0156H109.055V31.5859C109.055 32.4297 109.477 33.1328 110.32 33.6953C110.883 34.0469 111.504 34.2227 112.184 34.2227V37.1758C109.934 37.1758 108.199 36.2969 106.98 34.5391C106.371 33.6484 106.066 32.7812 106.066 31.9375ZM113.73 37.1758V34.2227C114.996 34.2227 115.922 33.7188 116.508 32.7109C116.719 32.3359 116.824 31.9609 116.824 31.5859V18.0156H119.812V31.9375C119.812 33.0391 119.309 34.1289 118.301 35.207C117.082 36.4961 115.559 37.1523 113.73 37.1758ZM121.852 32.0078L124.629 31.4805C124.629 32.5352 125.18 33.3672 126.281 33.9766C126.82 34.2344 127.336 34.375 127.828 34.3984V37.1758C125.555 37.1758 123.855 36.3555 122.73 34.7148C122.145 33.8477 121.852 32.9453 121.852 32.0078ZM122.027 23.3594C122.027 21.2266 123 19.6445 124.945 18.6133C125.883 18.1211 126.82 17.875 127.758 17.875V20.6172C126.68 20.6172 125.848 21.0625 125.262 21.9531C124.957 22.3984 124.805 22.8672 124.805 23.3594C124.805 24.1094 125.391 24.7188 126.562 25.1875C127.453 25.5625 129.176 26.0547 131.73 26.6641C133.324 26.9922 134.461 27.7773 135.141 29.0195C135.492 29.6758 135.668 30.4141 135.668 31.2344C135.668 33.4844 134.766 35.1484 132.961 36.2266C131.906 36.8594 130.699 37.1758 129.34 37.1758V34.3984C130.418 34.3984 131.32 34.0234 132.047 33.2734C132.562 32.7344 132.82 32.1016 132.82 31.375C132.82 30.4375 131.895 29.6875 130.043 29.125C129.574 28.9844 128.824 28.7852 127.793 28.5273C126.691 28.2695 125.895 28.0586 125.402 27.8945C123.621 27.1914 122.543 26.125 122.168 24.6953C122.074 24.2734 122.027 23.8281 122.027 23.3594ZM129.305 20.6523V17.875C131.32 17.875 132.949 18.625 134.191 20.125C134.965 21.0859 135.352 22.0938 135.352 23.1484L132.574 23.6055C132.574 22.3164 131.871 21.4141 130.465 20.8984C130.043 20.7344 129.656 20.6523 129.305 20.6523ZM137.742 31.7969V23.0781C137.766 22 138.281 20.9336 139.289 19.8789C140.508 18.6367 141.984 18.0039 143.719 17.9805V20.7578C142.594 20.7578 141.715 21.25 141.082 22.2344C140.824 22.6562 140.695 23.043 140.695 23.3945V25.7852H148.57V23.3945C148.57 22.3398 148.031 21.5664 146.953 21.0742C146.461 20.8398 145.957 20.7227 145.441 20.7227V17.9805C147.059 17.9805 148.5 18.5547 149.766 19.7031C150.82 20.7109 151.359 21.8242 151.383 23.043V28.6328H140.695V31.7969C140.695 32.4531 141.07 33.0625 141.82 33.625C142.43 34.0469 143.074 34.2578 143.754 34.2578V37C141.621 37 139.945 36.1328 138.727 34.3984C138.07 33.4844 137.742 32.6172 137.742 31.7969ZM145.441 37V34.2227C146.848 34.2227 147.902 33.6133 148.605 32.3945C148.746 32.1367 148.852 31.8906 148.922 31.6562L151.418 32.5703C150.996 34.1875 150.035 35.4062 148.535 36.2266C147.574 36.7422 146.543 37 145.441 37Z"/>
</mask>
<path d="M1.47656 37V17.7695H1.75781L4.53516 22.2695V37H1.47656ZM1.47656 14.3594V12.3906H4.11328L17.1211 33.2383V37H15.6094L1.47656 14.3594ZM14.0625 25.2578V12.3906H17.1211V29.7578H16.8398L14.0625 25.2578ZM20.2148 15.3789C20.2148 14.6523 20.5547 14.1367 21.2344 13.832C21.4688 13.7383 21.7031 13.6914 21.9375 13.6914C22.6406 13.6914 23.1562 14.0195 23.4844 14.6758C23.5781 14.9102 23.625 15.1445 23.625 15.3789C23.625 16.082 23.2969 16.5977 22.6406 16.9258C22.4062 17.0195 22.1719 17.0664 21.9375 17.0664C21.2109 17.0664 20.6836 16.7383 20.3555 16.082C20.2617 15.8477 20.2148 15.6133 20.2148 15.3789ZM20.4609 37V18.4727H23.4141V37H20.4609ZM25.5234 37L30.5156 27.3672L25.6641 17.9805H28.6523L32.2031 24.2734L35.7539 17.9805H38.7773L33.9258 27.3672L38.8828 37H35.8945L32.2031 30.3906L28.5117 37H25.5234ZM40.5 31.7969V23.1133C40.5 22.0117 40.9922 20.9336 41.9766 19.8789C43.1953 18.6133 44.7188 17.9805 46.5469 17.9805V20.8281C45.1641 20.8281 44.2031 21.4023 43.6641 22.5508C43.5 22.9023 43.418 23.2539 43.418 23.6055V31.3398C43.418 32.207 43.8164 32.9453 44.6133 33.5547C45.1758 33.9766 45.8203 34.1875 46.5469 34.1875V37.0352C44.3203 37.0352 42.5977 36.1328 41.3789 34.3281C40.793 33.4375 40.5 32.5938 40.5 31.7969ZM48.0586 37.0352V34.1875C49.3008 34.1875 50.1914 33.625 50.7305 32.5C50.918 32.125 51.0117 31.7617 51.0117 31.4102V23.6055C51.0117 22.6445 50.6016 21.8828 49.7812 21.3203C49.2656 20.9922 48.6797 20.8281 48.0234 20.8281V17.9805C50.1797 17.9805 51.8438 18.8594 53.0156 20.6172C53.6016 21.4844 53.8945 22.3164 53.8945 23.1133V31.7969C53.8945 32.9453 53.4023 34.0586 52.418 35.1367C51.2695 36.3789 49.8164 37.0117 48.0586 37.0352ZM56.5664 37V23.1133C56.5664 21.9883 57.0703 20.8867 58.0781 19.8086C59.3203 18.543 60.8555 17.9102 62.6836 17.9102V20.8281C61.4883 20.8281 60.5742 21.2969 59.9414 22.2344C59.6836 22.6328 59.5547 23.043 59.5547 23.4648V37H56.5664ZM64.2305 20.8281V17.9102C66.4102 17.9102 68.1094 18.7891 69.3281 20.5469C69.9844 21.4609 70.3125 22.3164 70.3125 23.1133V37H67.3242V23.4648C67.3242 22.7383 66.9609 22.0938 66.2344 21.5312C65.6484 21.0625 64.9805 20.8281 64.2305 20.8281ZM73.0547 37V12.3906H76.1133V23.1133H79.2773V26.1016H76.1133V37H73.0547ZM81.0352 26.1016V23.1133H84.1641V12.3906H87.2578V37H84.1641V26.1016H81.0352ZM90 31.7969V23.1133C90 22.0117 90.4922 20.9336 91.4766 19.8789C92.6953 18.6133 94.2188 17.9805 96.0469 17.9805V20.8281C94.6641 20.8281 93.7031 21.4023 93.1641 22.5508C93 22.9023 92.918 23.2539 92.918 23.6055V31.3398C92.918 32.207 93.3164 32.9453 94.1133 33.5547C94.6758 33.9766 95.3203 34.1875 96.0469 34.1875V37.0352C93.8203 37.0352 92.0977 36.1328 90.8789 34.3281C90.293 33.4375 90 32.5938 90 31.7969ZM97.5586 37.0352V34.1875C98.8008 34.1875 99.6914 33.625 100.23 32.5C100.418 32.125 100.512 31.7617 100.512 31.4102V23.6055C100.512 22.6445 100.102 21.8828 99.2812 21.3203C98.7656 20.9922 98.1797 20.8281 97.5234 20.8281V17.9805C99.6797 17.9805 101.344 18.8594 102.516 20.6172C103.102 21.4844 103.395 22.3164 103.395 23.1133V31.7969C103.395 32.9453 102.902 34.0586 101.918 35.1367C100.77 36.3789 99.3164 37.0117 97.5586 37.0352ZM106.066 31.9375V18.0156H109.055V31.5859C109.055 32.4297 109.477 33.1328 110.32 33.6953C110.883 34.0469 111.504 34.2227 112.184 34.2227V37.1758C109.934 37.1758 108.199 36.2969 106.98 34.5391C106.371 33.6484 106.066 32.7812 106.066 31.9375ZM113.73 37.1758V34.2227C114.996 34.2227 115.922 33.7188 116.508 32.7109C116.719 32.3359 116.824 31.9609 116.824 31.5859V18.0156H119.812V31.9375C119.812 33.0391 119.309 34.1289 118.301 35.207C117.082 36.4961 115.559 37.1523 113.73 37.1758ZM121.852 32.0078L124.629 31.4805C124.629 32.5352 125.18 33.3672 126.281 33.9766C126.82 34.2344 127.336 34.375 127.828 34.3984V37.1758C125.555 37.1758 123.855 36.3555 122.73 34.7148C122.145 33.8477 121.852 32.9453 121.852 32.0078ZM122.027 23.3594C122.027 21.2266 123 19.6445 124.945 18.6133C125.883 18.1211 126.82 17.875 127.758 17.875V20.6172C126.68 20.6172 125.848 21.0625 125.262 21.9531C124.957 22.3984 124.805 22.8672 124.805 23.3594C124.805 24.1094 125.391 24.7188 126.562 25.1875C127.453 25.5625 129.176 26.0547 131.73 26.6641C133.324 26.9922 134.461 27.7773 135.141 29.0195C135.492 29.6758 135.668 30.4141 135.668 31.2344C135.668 33.4844 134.766 35.1484 132.961 36.2266C131.906 36.8594 130.699 37.1758 129.34 37.1758V34.3984C130.418 34.3984 131.32 34.0234 132.047 33.2734C132.562 32.7344 132.82 32.1016 132.82 31.375C132.82 30.4375 131.895 29.6875 130.043 29.125C129.574 28.9844 128.824 28.7852 127.793 28.5273C126.691 28.2695 125.895 28.0586 125.402 27.8945C123.621 27.1914 122.543 26.125 122.168 24.6953C122.074 24.2734 122.027 23.8281 122.027 23.3594ZM129.305 20.6523V17.875C131.32 17.875 132.949 18.625 134.191 20.125C134.965 21.0859 135.352 22.0938 135.352 23.1484L132.574 23.6055C132.574 22.3164 131.871 21.4141 130.465 20.8984C130.043 20.7344 129.656 20.6523 129.305 20.6523ZM137.742 31.7969V23.0781C137.766 22 138.281 20.9336 139.289 19.8789C140.508 18.6367 141.984 18.0039 143.719 17.9805V20.7578C142.594 20.7578 141.715 21.25 141.082 22.2344C140.824 22.6562 140.695 23.043 140.695 23.3945V25.7852H148.57V23.3945C148.57 22.3398 148.031 21.5664 146.953 21.0742C146.461 20.8398 145.957 20.7227 145.441 20.7227V17.9805C147.059 17.9805 148.5 18.5547 149.766 19.7031C150.82 20.7109 151.359 21.8242 151.383 23.043V28.6328H140.695V31.7969C140.695 32.4531 141.07 33.0625 141.82 33.625C142.43 34.0469 143.074 34.2578 143.754 34.2578V37C141.621 37 139.945 36.1328 138.727 34.3984C138.07 33.4844 137.742 32.6172 137.742 31.7969ZM145.441 37V34.2227C146.848 34.2227 147.902 33.6133 148.605 32.3945C148.746 32.1367 148.852 31.8906 148.922 31.6562L151.418 32.5703C150.996 34.1875 150.035 35.4062 148.535 36.2266C147.574 36.7422 146.543 37 145.441 37Z" fill="white"/>
<path d="M1.47656 37H0.476562V38H1.47656V37ZM1.47656 17.7695V16.7695H0.476562V17.7695H1.47656ZM1.75781 17.7695L2.60879 17.2443L2.31575 16.7695H1.75781V17.7695ZM4.53516 22.2695H5.53516V21.9858L5.38613 21.7443L4.53516 22.2695ZM4.53516 37V38H5.53516V37H4.53516ZM1.47656 14.3594H0.476562V14.6459L0.628268 14.8889L1.47656 14.3594ZM1.47656 12.3906V11.3906H0.476562V12.3906H1.47656ZM4.11328 12.3906L4.96168 11.8613L4.66802 11.3906H4.11328V12.3906ZM17.1211 33.2383H18.1211V32.9519L17.9695 32.7089L17.1211 33.2383ZM17.1211 37V38H18.1211V37H17.1211ZM15.6094 37L14.7611 37.5295L15.0548 38H15.6094V37ZM14.0625 25.2578H13.0625V25.5416L13.2115 25.783L14.0625 25.2578ZM14.0625 12.3906V11.3906H13.0625V12.3906H14.0625ZM17.1211 12.3906H18.1211V11.3906H17.1211V12.3906ZM17.1211 29.7578V30.7578H18.1211V29.7578H17.1211ZM16.8398 29.7578L15.9889 30.283L16.2819 30.7578H16.8398V29.7578ZM2.47656 37V17.7695H0.476562V37H2.47656ZM1.47656 18.7695H1.75781V16.7695H1.47656V18.7695ZM0.90684 18.2947L3.68418 22.7947L5.38613 21.7443L2.60879 17.2443L0.90684 18.2947ZM3.53516 22.2695V37H5.53516V22.2695H3.53516ZM4.53516 36H1.47656V38H4.53516V36ZM2.47656 14.3594V12.3906H0.476562V14.3594H2.47656ZM1.47656 13.3906H4.11328V11.3906H1.47656V13.3906ZM3.26488 12.92L16.2727 33.7676L17.9695 32.7089L4.96168 11.8613L3.26488 12.92ZM16.1211 33.2383V37H18.1211V33.2383H16.1211ZM17.1211 36H15.6094V38H17.1211V36ZM16.4577 36.4705L2.32486 13.8298L0.628268 14.8889L14.7611 37.5295L16.4577 36.4705ZM15.0625 25.2578V12.3906H13.0625V25.2578H15.0625ZM14.0625 13.3906H17.1211V11.3906H14.0625V13.3906ZM16.1211 12.3906V29.7578H18.1211V12.3906H16.1211ZM17.1211 28.7578H16.8398V30.7578H17.1211V28.7578ZM17.6908 29.2326L14.9135 24.7326L13.2115 25.783L15.9889 30.283L17.6908 29.2326ZM21.2344 13.832L20.863 12.9036L20.844 12.9112L20.8253 12.9195L21.2344 13.832ZM23.4844 14.6758L24.4129 14.3044L24.3974 14.2658L24.3788 14.2286L23.4844 14.6758ZM22.6406 16.9258L23.012 17.8543L23.0506 17.8388L23.0878 17.8202L22.6406 16.9258ZM20.3555 16.082L19.427 16.4534L19.4424 16.492L19.461 16.5292L20.3555 16.082ZM20.4609 37H19.4609V38H20.4609V37ZM20.4609 18.4727V17.4727H19.4609V18.4727H20.4609ZM23.4141 18.4727H24.4141V17.4727H23.4141V18.4727ZM23.4141 37V38H24.4141V37H23.4141ZM21.2148 15.3789C21.2148 15.176 21.2603 15.0649 21.3047 14.9976C21.3501 14.9286 21.441 14.8353 21.6434 14.7445L20.8253 12.9195C20.348 13.1335 19.9291 13.4503 19.6348 13.897C19.3393 14.3452 19.2148 14.8552 19.2148 15.3789H21.2148ZM21.6058 14.7605C21.7312 14.7103 21.8399 14.6914 21.9375 14.6914V12.6914C21.5664 12.6914 21.2063 12.7662 20.863 12.9036L21.6058 14.7605ZM21.9375 14.6914C22.1282 14.6914 22.2404 14.7339 22.3147 14.7812C22.3915 14.83 22.4906 14.9243 22.5899 15.123L24.3788 14.2286C24.15 13.771 23.8273 13.3731 23.3884 13.0938C22.9471 12.813 22.45 12.6914 21.9375 12.6914V14.6914ZM22.5559 15.0472C22.6061 15.1726 22.625 15.2813 22.625 15.3789H24.625C24.625 15.0078 24.5502 14.6477 24.4129 14.3044L22.5559 15.0472ZM22.625 15.3789C22.625 15.5696 22.5825 15.6818 22.5352 15.7561C22.4864 15.8329 22.3921 15.932 22.1934 16.0314L23.0878 17.8202C23.5454 17.5914 23.9433 17.2687 24.2226 16.8298C24.5034 16.3886 24.625 15.8914 24.625 15.3789H22.625ZM22.2692 15.9973C22.1438 16.0475 22.0351 16.0664 21.9375 16.0664V18.0664C22.3086 18.0664 22.6687 17.9916 23.012 17.8543L22.2692 15.9973ZM21.9375 16.0664C21.7287 16.0664 21.6052 16.0209 21.5254 15.9713C21.445 15.9212 21.3465 15.8281 21.2499 15.6348L19.461 16.5292C19.6925 16.9923 20.0218 17.3913 20.4688 17.6694C20.9163 17.9478 21.4197 18.0664 21.9375 18.0664V16.0664ZM21.2839 15.7106C21.2338 15.5852 21.2148 15.4765 21.2148 15.3789H19.2148C19.2148 15.75 19.2897 16.1101 19.427 16.4534L21.2839 15.7106ZM21.4609 37V18.4727H19.4609V37H21.4609ZM20.4609 19.4727H23.4141V17.4727H20.4609V19.4727ZM22.4141 18.4727V37H24.4141V18.4727H22.4141ZM23.4141 36H20.4609V38H23.4141V36ZM25.5234 37L24.6356 36.5399L23.8789 38H25.5234V37ZM30.5156 27.3672L31.4035 27.8273L31.6416 27.3678L31.404 26.908L30.5156 27.3672ZM25.6641 17.9805V16.9805H24.0215L24.7757 18.4396L25.6641 17.9805ZM28.6523 17.9805L29.5233 17.4891L29.2363 16.9805H28.6523V17.9805ZM32.2031 24.2734L31.3322 24.7649L32.2031 26.3084L33.0741 24.7649L32.2031 24.2734ZM35.7539 17.9805V16.9805H35.1699L34.883 17.4891L35.7539 17.9805ZM38.7773 17.9805L39.6657 18.4396L40.4199 16.9805H38.7773V17.9805ZM33.9258 27.3672L33.0374 26.908L32.8006 27.3662L33.0366 27.8248L33.9258 27.3672ZM38.8828 37V38H40.522L39.772 36.5424L38.8828 37ZM35.8945 37L35.0215 37.4876L35.3076 38H35.8945V37ZM32.2031 30.3906L33.0762 29.903L32.2031 28.3398L31.3301 29.903L32.2031 30.3906ZM28.5117 37V38H29.0986L29.3848 37.4876L28.5117 37ZM26.4113 37.4601L31.4035 27.8273L29.6278 26.9071L24.6356 36.5399L26.4113 37.4601ZM31.404 26.908L26.5524 17.5213L24.7757 18.4396L29.6273 27.8263L31.404 26.908ZM25.6641 18.9805H28.6523V16.9805H25.6641V18.9805ZM27.7814 18.4719L31.3322 24.7649L33.0741 23.782L29.5233 17.4891L27.7814 18.4719ZM33.0741 24.7649L36.6248 18.4719L34.883 17.4891L31.3322 23.782L33.0741 24.7649ZM35.7539 18.9805H38.7773V16.9805H35.7539V18.9805ZM37.889 17.5213L33.0374 26.908L34.8141 27.8263L39.6657 18.4396L37.889 17.5213ZM33.0366 27.8248L37.9936 37.4576L39.772 36.5424L34.815 26.9096L33.0366 27.8248ZM38.8828 36H35.8945V38H38.8828V36ZM36.7676 36.5124L33.0762 29.903L31.3301 30.8782L35.0215 37.4876L36.7676 36.5124ZM31.3301 29.903L27.6387 36.5124L29.3848 37.4876L33.0762 30.8782L31.3301 29.903ZM28.5117 36H25.5234V38H28.5117V36ZM41.9766 19.8789L41.2562 19.1853L41.2508 19.1909L41.2455 19.1966L41.9766 19.8789ZM46.5469 17.9805H47.5469V16.9805H46.5469V17.9805ZM46.5469 20.8281V21.8281H47.5469V20.8281H46.5469ZM43.6641 22.5508L42.7588 22.1259L42.7579 22.1279L43.6641 22.5508ZM44.6133 33.5547L44.0058 34.3491L44.0133 34.3547L44.6133 33.5547ZM46.5469 34.1875H47.5469V33.1875H46.5469V34.1875ZM46.5469 37.0352V38.0352H47.5469V37.0352H46.5469ZM41.3789 34.3281L40.5434 34.8778L40.5502 34.8878L41.3789 34.3281ZM48.0586 37.0352H47.0586V38.0486L48.0719 38.0351L48.0586 37.0352ZM48.0586 34.1875V33.1875H47.0586V34.1875H48.0586ZM50.7305 32.5L49.836 32.0528L49.8323 32.0603L49.8287 32.0679L50.7305 32.5ZM49.7812 21.3203L50.3468 20.4956L50.3326 20.4859L50.3181 20.4767L49.7812 21.3203ZM48.0234 20.8281H47.0234V21.8281H48.0234V20.8281ZM48.0234 17.9805V16.9805H47.0234V17.9805H48.0234ZM53.0156 20.6172L52.1836 21.1719L52.187 21.177L53.0156 20.6172ZM52.418 35.1367L53.1523 35.8156L53.1565 35.811L52.418 35.1367ZM41.5 31.7969V23.1133H39.5V31.7969H41.5ZM41.5 23.1133C41.5 22.3356 41.841 21.4897 42.7076 20.5612L41.2455 19.1966C40.1434 20.3774 39.5 21.6879 39.5 23.1133H41.5ZM42.6969 20.5725C43.7187 19.5114 44.9782 18.9805 46.5469 18.9805V16.9805C44.4593 16.9805 42.6719 17.7152 41.2562 19.1853L42.6969 20.5725ZM45.5469 17.9805V20.8281H47.5469V17.9805H45.5469ZM46.5469 19.8281C45.7171 19.8281 44.9443 20.0011 44.2761 20.4004C43.6025 20.8029 43.1013 21.3962 42.7588 22.1259L44.5693 22.9757C44.7658 22.557 45.0147 22.2889 45.302 22.1172C45.5948 21.9423 45.9938 21.8281 46.5469 21.8281V19.8281ZM42.7579 22.1279C42.5385 22.598 42.418 23.0932 42.418 23.6055H44.418C44.418 23.4146 44.4615 23.2067 44.5702 22.9737L42.7579 22.1279ZM42.418 23.6055V31.3398H44.418V23.6055H42.418ZM42.418 31.3398C42.418 32.57 43.0055 33.5841 44.0058 34.349L45.2207 32.7603C44.6273 32.3065 44.418 31.8441 44.418 31.3398H42.418ZM44.0133 34.3547C44.755 34.911 45.6117 35.1875 46.5469 35.1875V33.1875C46.0289 33.1875 45.5966 33.0422 45.2133 32.7547L44.0133 34.3547ZM45.5469 34.1875V37.0352H47.5469V34.1875H45.5469ZM46.5469 36.0352C44.6436 36.0352 43.2355 35.2905 42.2076 33.7685L40.5502 34.8878C41.9598 36.9751 43.997 38.0352 46.5469 38.0352V36.0352ZM42.2143 33.7785C41.7003 32.9972 41.5 32.3426 41.5 31.7969H39.5C39.5 32.8449 39.8856 33.8778 40.5435 34.8777L42.2143 33.7785ZM49.0586 37.0352V34.1875H47.0586V37.0352H49.0586ZM48.0586 35.1875C48.8343 35.1875 49.5603 35.0102 50.1922 34.6111C50.8238 34.2122 51.2966 33.6326 51.6323 32.9321L49.8287 32.0679C49.6252 32.4924 49.3832 32.7566 49.1242 32.9201C48.8655 33.0835 48.525 33.1875 48.0586 33.1875V35.1875ZM51.6249 32.9472C51.8686 32.4599 52.0117 31.9441 52.0117 31.4102H50.0117C50.0117 31.5793 49.9674 31.7901 49.836 32.0528L51.6249 32.9472ZM52.0117 31.4102V23.6055H50.0117V31.4102H52.0117ZM52.0117 23.6055C52.0117 22.3012 51.4276 21.2367 50.3468 20.4956L49.2157 22.145C49.7755 22.5289 50.0117 22.9878 50.0117 23.6055H52.0117ZM50.3181 20.4767C49.6301 20.0388 48.8552 19.8281 48.0234 19.8281V21.8281C48.5041 21.8281 48.9011 21.9455 49.2444 22.164L50.3181 20.4767ZM49.0234 20.8281V17.9805H47.0234V20.8281H49.0234ZM48.0234 18.9805C49.8536 18.9805 51.2017 19.6991 52.1836 21.1719L53.8477 20.0625C52.4858 18.0196 50.5057 16.9805 48.0234 16.9805V18.9805ZM52.187 21.177C52.6958 21.93 52.8945 22.5698 52.8945 23.1133H54.8945C54.8945 22.063 54.5073 21.0387 53.8442 20.0573L52.187 21.177ZM52.8945 23.1133V31.7969H54.8945V23.1133H52.8945ZM52.8945 31.7969C52.8945 32.6336 52.5429 33.5168 51.6795 34.4624L53.1565 35.811C54.2618 34.6004 54.8945 33.257 54.8945 31.7969H52.8945ZM51.6837 34.4579C50.7294 35.49 49.541 36.0153 48.0453 36.0352L48.0719 38.0351C50.0918 38.0081 51.8096 37.2678 53.1522 35.8156L51.6837 34.4579ZM56.5664 37H55.5664V38H56.5664V37ZM58.0781 19.8086L57.3644 19.1081L57.3559 19.1168L57.3476 19.1257L58.0781 19.8086ZM62.6836 17.9102H63.6836V16.9102H62.6836V17.9102ZM62.6836 20.8281V21.8281H63.6836V20.8281H62.6836ZM59.9414 22.2344L59.1126 21.6749L59.1071 21.683L59.1018 21.6911L59.9414 22.2344ZM59.5547 37V38H60.5547V37H59.5547ZM64.2305 20.8281H63.2305V21.8281H64.2305V20.8281ZM64.2305 17.9102V16.9102H63.2305V17.9102H64.2305ZM69.3281 20.5469L68.5063 21.1167L68.511 21.1234L68.5158 21.1301L69.3281 20.5469ZM70.3125 37V38H71.3125V37H70.3125ZM67.3242 37H66.3242V38H67.3242V37ZM66.2344 21.5312L65.6097 22.3121L65.6159 22.3171L65.6222 22.322L66.2344 21.5312ZM57.5664 37V23.1133H55.5664V37H57.5664ZM57.5664 23.1133C57.5664 22.3129 57.9185 21.4438 58.8087 20.4915L57.3476 19.1257C56.2222 20.3297 55.5664 21.6637 55.5664 23.1133H57.5664ZM58.7918 20.5091C59.8395 19.4416 61.1146 18.9102 62.6836 18.9102V16.9102C60.5963 16.9102 58.8011 17.6444 57.3644 19.1081L58.7918 20.5091ZM61.6836 17.9102V20.8281H63.6836V17.9102H61.6836ZM62.6836 19.8281C61.1784 19.8281 59.9435 20.4439 59.1126 21.6749L60.7703 22.7938C61.2049 22.1499 61.7981 21.8281 62.6836 21.8281V19.8281ZM59.1018 21.6911C58.7528 22.2305 58.5547 22.8268 58.5547 23.4648H60.5547C60.5547 23.2592 60.6144 23.0351 60.781 22.7776L59.1018 21.6911ZM58.5547 23.4648V37H60.5547V23.4648H58.5547ZM59.5547 36H56.5664V38H59.5547V36ZM65.2305 20.8281V17.9102H63.2305V20.8281H65.2305ZM64.2305 18.9102C66.0897 18.9102 67.4786 19.6344 68.5063 21.1167L70.1499 19.9771C68.7401 17.9437 66.7306 16.9102 64.2305 16.9102V18.9102ZM68.5158 21.1301C69.0987 21.942 69.3125 22.596 69.3125 23.1133H71.3125C71.3125 22.0368 70.8701 20.9799 70.1404 19.9637L68.5158 21.1301ZM69.3125 23.1133V37H71.3125V23.1133H69.3125ZM70.3125 36H67.3242V38H70.3125V36ZM68.3242 37V23.4648H66.3242V37H68.3242ZM68.3242 23.4648C68.3242 22.3489 67.7466 21.4374 66.8465 20.7405L65.6222 22.322C66.1753 22.7501 66.3242 23.1277 66.3242 23.4648H68.3242ZM66.8591 20.7504C66.0959 20.1399 65.2077 19.8281 64.2305 19.8281V21.8281C64.7533 21.8281 65.201 21.9851 65.6097 22.3121L66.8591 20.7504ZM73.0547 37H72.0547V38H73.0547V37ZM73.0547 12.3906V11.3906H72.0547V12.3906H73.0547ZM76.1133 12.3906H77.1133V11.3906H76.1133V12.3906ZM76.1133 23.1133H75.1133V24.1133H76.1133V23.1133ZM79.2773 23.1133H80.2773V22.1133H79.2773V23.1133ZM79.2773 26.1016V27.1016H80.2773V26.1016H79.2773ZM76.1133 26.1016V25.1016H75.1133V26.1016H76.1133ZM76.1133 37V38H77.1133V37H76.1133ZM81.0352 26.1016H80.0352V27.1016H81.0352V26.1016ZM81.0352 23.1133V22.1133H80.0352V23.1133H81.0352ZM84.1641 23.1133V24.1133H85.1641V23.1133H84.1641ZM84.1641 12.3906V11.3906H83.1641V12.3906H84.1641ZM87.2578 12.3906H88.2578V11.3906H87.2578V12.3906ZM87.2578 37V38H88.2578V37H87.2578ZM84.1641 37H83.1641V38H84.1641V37ZM84.1641 26.1016H85.1641V25.1016H84.1641V26.1016ZM74.0547 37V12.3906H72.0547V37H74.0547ZM73.0547 13.3906H76.1133V11.3906H73.0547V13.3906ZM75.1133 12.3906V23.1133H77.1133V12.3906H75.1133ZM76.1133 24.1133H79.2773V22.1133H76.1133V24.1133ZM78.2773 23.1133V26.1016H80.2773V23.1133H78.2773ZM79.2773 25.1016H76.1133V27.1016H79.2773V25.1016ZM75.1133 26.1016V37H77.1133V26.1016H75.1133ZM76.1133 36H73.0547V38H76.1133V36ZM82.0352 26.1016V23.1133H80.0352V26.1016H82.0352ZM81.0352 24.1133H84.1641V22.1133H81.0352V24.1133ZM85.1641 23.1133V12.3906H83.1641V23.1133H85.1641ZM84.1641 13.3906H87.2578V11.3906H84.1641V13.3906ZM86.2578 12.3906V37H88.2578V12.3906H86.2578ZM87.2578 36H84.1641V38H87.2578V36ZM85.1641 37V26.1016H83.1641V37H85.1641ZM84.1641 25.1016H81.0352V27.1016H84.1641V25.1016ZM91.4766 19.8789L90.7562 19.1853L90.7508 19.1909L90.7455 19.1966L91.4766 19.8789ZM96.0469 17.9805H97.0469V16.9805H96.0469V17.9805ZM96.0469 20.8281V21.8281H97.0469V20.8281H96.0469ZM93.1641 22.5508L92.2588 22.1259L92.2579 22.1279L93.1641 22.5508ZM94.1133 33.5547L93.5058 34.3491L93.5133 34.3547L94.1133 33.5547ZM96.0469 34.1875H97.0469V33.1875H96.0469V34.1875ZM96.0469 37.0352V38.0352H97.0469V37.0352H96.0469ZM90.8789 34.3281L90.0434 34.8778L90.0502 34.8878L90.8789 34.3281ZM97.5586 37.0352H96.5586V38.0486L97.5719 38.0351L97.5586 37.0352ZM97.5586 34.1875V33.1875H96.5586V34.1875H97.5586ZM100.23 32.5L99.336 32.0528L99.3323 32.0603L99.3287 32.0679L100.23 32.5ZM99.2812 21.3203L99.8468 20.4956L99.8326 20.4859L99.8181 20.4767L99.2812 21.3203ZM97.5234 20.8281H96.5234V21.8281H97.5234V20.8281ZM97.5234 17.9805V16.9805H96.5234V17.9805H97.5234ZM102.516 20.6172L101.684 21.1719L101.687 21.177L102.516 20.6172ZM101.918 35.1367L102.652 35.8156L102.656 35.811L101.918 35.1367ZM91 31.7969V23.1133H89V31.7969H91ZM91 23.1133C91 22.3356 91.341 21.4897 92.2076 20.5612L90.7455 19.1966C89.6434 20.3774 89 21.6879 89 23.1133H91ZM92.1969 20.5725C93.2187 19.5114 94.4782 18.9805 96.0469 18.9805V16.9805C93.9593 16.9805 92.1719 17.7152 90.7562 19.1853L92.1969 20.5725ZM95.0469 17.9805V20.8281H97.0469V17.9805H95.0469ZM96.0469 19.8281C95.2171 19.8281 94.4443 20.0011 93.7761 20.4004C93.1025 20.8029 92.6013 21.3962 92.2588 22.1259L94.0693 22.9757C94.2658 22.557 94.5147 22.2889 94.802 22.1172C95.0948 21.9423 95.4938 21.8281 96.0469 21.8281V19.8281ZM92.2579 22.1279C92.0385 22.598 91.918 23.0932 91.918 23.6055H93.918C93.918 23.4146 93.9615 23.2067 94.0702 22.9737L92.2579 22.1279ZM91.918 23.6055V31.3398H93.918V23.6055H91.918ZM91.918 31.3398C91.918 32.57 92.5055 33.5841 93.5058 34.349L94.7207 32.7603C94.1273 32.3065 93.918 31.8441 93.918 31.3398H91.918ZM93.5133 34.3547C94.255 34.911 95.1117 35.1875 96.0469 35.1875V33.1875C95.5289 33.1875 95.0966 33.0422 94.7133 32.7547L93.5133 34.3547ZM95.0469 34.1875V37.0352H97.0469V34.1875H95.0469ZM96.0469 36.0352C94.1436 36.0352 92.7355 35.2905 91.7076 33.7685L90.0502 34.8878C91.4598 36.9751 93.497 38.0352 96.0469 38.0352V36.0352ZM91.7143 33.7785C91.2003 32.9972 91 32.3426 91 31.7969H89C89 32.8449 89.3856 33.8778 90.0435 34.8777L91.7143 33.7785ZM98.5586 37.0352V34.1875H96.5586V37.0352H98.5586ZM97.5586 35.1875C98.3343 35.1875 99.0603 35.0102 99.6922 34.6111C100.324 34.2122 100.797 33.6326 101.132 32.9321L99.3287 32.0679C99.1252 32.4924 98.8832 32.7566 98.6242 32.9201C98.3655 33.0835 98.025 33.1875 97.5586 33.1875V35.1875ZM101.125 32.9472C101.369 32.4599 101.512 31.9441 101.512 31.4102H99.5117C99.5117 31.5793 99.4674 31.7901 99.336 32.0528L101.125 32.9472ZM101.512 31.4102V23.6055H99.5117V31.4102H101.512ZM101.512 23.6055C101.512 22.3012 100.928 21.2367 99.8468 20.4956L98.7157 22.145C99.2755 22.5289 99.5117 22.9878 99.5117 23.6055H101.512ZM99.8181 20.4767C99.1301 20.0388 98.3552 19.8281 97.5234 19.8281V21.8281C98.0041 21.8281 98.4011 21.9455 98.7444 22.164L99.8181 20.4767ZM98.5234 20.8281V17.9805H96.5234V20.8281H98.5234ZM97.5234 18.9805C99.3536 18.9805 100.702 19.6991 101.684 21.1719L103.348 20.0625C101.986 18.0196 100.006 16.9805 97.5234 16.9805V18.9805ZM101.687 21.177C102.196 21.93 102.395 22.5698 102.395 23.1133H104.395C104.395 22.063 104.007 21.0387 103.344 20.0573L101.687 21.177ZM102.395 23.1133V31.7969H104.395V23.1133H102.395ZM102.395 31.7969C102.395 32.6336 102.043 33.5168 101.179 34.4624L102.656 35.811C103.762 34.6004 104.395 33.257 104.395 31.7969H102.395ZM101.184 34.4579C100.229 35.49 99.041 36.0153 97.5453 36.0352L97.5719 38.0351C99.5918 38.0081 101.31 37.2678 102.652 35.8156L101.184 34.4579ZM106.066 18.0156V17.0156H105.066V18.0156H106.066ZM109.055 18.0156H110.055V17.0156H109.055V18.0156ZM110.32 33.6953L109.766 34.5274L109.778 34.5355L109.79 34.5433L110.32 33.6953ZM112.184 34.2227H113.184V33.2227H112.184V34.2227ZM112.184 37.1758V38.1758H113.184V37.1758H112.184ZM106.98 34.5391L106.155 35.1038L106.159 35.1088L106.98 34.5391ZM113.73 37.1758H112.73V38.1887L113.743 38.1757L113.73 37.1758ZM113.73 34.2227V33.2227H112.73V34.2227H113.73ZM116.508 32.7109L117.372 33.2136L117.376 33.2074L117.379 33.2012L116.508 32.7109ZM116.824 18.0156V17.0156H115.824V18.0156H116.824ZM119.812 18.0156H120.812V17.0156H119.812V18.0156ZM118.301 35.207L119.027 35.8941L119.031 35.8899L118.301 35.207ZM107.066 31.9375V18.0156H105.066V31.9375H107.066ZM106.066 19.0156H109.055V17.0156H106.066V19.0156ZM108.055 18.0156V31.5859H110.055V18.0156H108.055ZM108.055 31.5859C108.055 32.8348 108.708 33.8224 109.766 34.5274L110.875 32.8633C110.245 32.4432 110.055 32.0246 110.055 31.5859H108.055ZM109.79 34.5433C110.516 34.9968 111.321 35.2227 112.184 35.2227V33.2227C111.686 33.2227 111.25 33.097 110.85 32.8473L109.79 34.5433ZM111.184 34.2227V37.1758H113.184V34.2227H111.184ZM112.184 36.1758C110.241 36.1758 108.823 35.4415 107.802 33.9693L106.159 35.1088C107.575 37.1523 109.626 38.1758 112.184 38.1758V36.1758ZM107.806 33.9744C107.279 33.2038 107.066 32.5301 107.066 31.9375H105.066C105.066 33.0324 105.464 34.0931 106.155 35.1037L107.806 33.9744ZM114.73 37.1758V34.2227H112.73V37.1758H114.73ZM113.73 35.2227C115.315 35.2227 116.589 34.5601 117.372 33.2136L115.643 32.2083C115.254 32.8774 114.677 33.2227 113.73 33.2227V35.2227ZM117.379 33.2012C117.662 32.6988 117.824 32.1566 117.824 31.5859H115.824C115.824 31.7653 115.776 31.973 115.636 32.2207L117.379 33.2012ZM117.824 31.5859V18.0156H115.824V31.5859H117.824ZM116.824 19.0156H119.812V17.0156H116.824V19.0156ZM118.812 18.0156V31.9375H120.812V18.0156H118.812ZM118.812 31.9375C118.812 32.7095 118.465 33.567 117.57 34.5241L119.031 35.8899C120.152 34.6908 120.812 33.3687 120.812 31.9375H118.812ZM117.574 34.52C116.548 35.6059 115.285 36.1558 113.718 36.1759L113.743 38.1757C115.833 38.1489 117.617 37.3863 119.027 35.894L117.574 34.52ZM121.852 32.0078L121.665 31.0254L120.852 31.1798V32.0078H121.852ZM124.629 31.4805H125.629V30.2727L124.442 30.498L124.629 31.4805ZM126.281 33.9766L125.797 34.8516L125.823 34.8659L125.85 34.8787L126.281 33.9766ZM127.828 34.3984H128.828V33.4449L127.876 33.3996L127.828 34.3984ZM127.828 37.1758V38.1758H128.828V37.1758H127.828ZM122.73 34.7148L121.902 35.2747L121.906 35.2804L122.73 34.7148ZM124.945 18.6133L124.48 17.7279L124.477 17.7298L124.945 18.6133ZM127.758 17.875H128.758V16.875H127.758V17.875ZM127.758 20.6172V21.6172H128.758V20.6172H127.758ZM125.262 21.9531L126.087 22.5178L126.092 22.5103L126.097 22.5027L125.262 21.9531ZM126.562 25.1875L126.951 24.2659L126.942 24.2624L126.934 24.259L126.562 25.1875ZM131.73 26.6641L131.498 27.6368L131.514 27.6404L131.529 27.6435L131.73 26.6641ZM135.141 29.0195L136.022 28.5473L136.018 28.5395L135.141 29.0195ZM132.961 36.2266L132.448 35.3681L132.446 35.3691L132.961 36.2266ZM129.34 37.1758H128.34V38.1758H129.34V37.1758ZM129.34 34.3984V33.3984H128.34V34.3984H129.34ZM132.047 33.2734L132.765 33.9692L132.77 33.9647L132.047 33.2734ZM130.043 29.125L130.334 28.1682L130.33 28.1672L130.043 29.125ZM127.793 28.5273L128.036 27.5572L128.028 27.5554L128.021 27.5537L127.793 28.5273ZM125.402 27.8945L125.035 28.8247L125.06 28.8346L125.086 28.8432L125.402 27.8945ZM122.168 24.6953L121.192 24.9122L121.196 24.9307L121.201 24.949L122.168 24.6953ZM129.305 20.6523H128.305V21.6523H129.305V20.6523ZM129.305 17.875V16.875H128.305V17.875H129.305ZM134.191 20.125L134.97 19.4979L134.962 19.4872L134.191 20.125ZM135.352 23.1484L135.514 24.1352L136.352 23.9973V23.1484H135.352ZM132.574 23.6055H131.574V24.7835L132.737 24.5922L132.574 23.6055ZM130.465 20.8984L130.102 21.8304L130.111 21.834L130.121 21.8373L130.465 20.8984ZM122.038 32.9903L124.815 32.4629L124.442 30.498L121.665 31.0254L122.038 32.9903ZM123.629 31.4805C123.629 32.9759 124.451 34.1068 125.797 34.8516L126.765 33.1015C125.909 32.6276 125.629 32.0944 125.629 31.4805H123.629ZM125.85 34.8787C126.484 35.1821 127.13 35.3663 127.781 35.3973L127.876 33.3996C127.542 33.3837 127.156 33.2867 126.713 33.0744L125.85 34.8787ZM126.828 34.3984V37.1758H128.828V34.3984H126.828ZM127.828 36.1758C125.83 36.1758 124.465 35.4758 123.555 34.1493L121.906 35.2804C123.246 37.2351 125.28 38.1758 127.828 38.1758V36.1758ZM123.559 34.155C123.071 33.4332 122.852 32.7229 122.852 32.0078H120.852C120.852 33.1677 121.218 34.2622 121.902 35.2747L123.559 34.155ZM123.027 23.3594C123.027 22.4499 123.233 21.7082 123.609 21.097C123.986 20.484 124.569 19.9445 125.414 19.4968L124.477 17.7298C123.376 18.3133 122.501 19.0804 121.905 20.0495C121.308 21.0203 121.027 22.1361 121.027 23.3594H123.027ZM125.41 19.4987C126.223 19.0719 127.002 18.875 127.758 18.875V16.875C126.638 16.875 125.543 17.1703 124.48 17.7279L125.41 19.4987ZM126.758 17.875V20.6172H128.758V17.875H126.758ZM127.758 19.6172C126.348 19.6172 125.2 20.2279 124.426 21.4035L126.097 22.5027C126.496 21.8971 127.012 21.6172 127.758 21.6172V19.6172ZM124.436 21.3884C124.029 21.9833 123.805 22.6463 123.805 23.3594H125.805C125.805 23.0881 125.885 22.8135 126.087 22.5178L124.436 21.3884ZM123.805 23.3594C123.805 24.7572 124.926 25.6097 126.191 26.116L126.934 24.259C125.856 23.8278 125.805 23.4616 125.805 23.3594H123.805ZM126.174 26.1091C127.152 26.5206 128.951 27.0292 131.498 27.6368L131.962 25.6914C129.4 25.0802 127.755 24.6044 126.951 24.2659L126.174 26.1091ZM131.529 27.6435C132.883 27.9223 133.746 28.5549 134.263 29.4995L136.018 28.5395C135.175 26.9998 133.766 26.0621 131.932 25.6846L131.529 27.6435ZM134.259 29.4918C134.525 29.9884 134.668 30.5617 134.668 31.2344H136.668C136.668 30.2664 136.459 29.3632 136.022 28.5473L134.259 29.4918ZM134.668 31.2344C134.668 33.1625 133.926 34.4854 132.448 35.3681L133.474 37.085C135.606 35.8115 136.668 33.8063 136.668 31.2344H134.668ZM132.446 35.3691C131.563 35.899 130.538 36.1758 129.34 36.1758V38.1758C130.861 38.1758 132.249 37.8197 133.475 37.0841L132.446 35.3691ZM130.34 37.1758V34.3984H128.34V37.1758H130.34ZM129.34 35.3984C130.679 35.3984 131.843 34.9207 132.765 33.9692L131.329 32.5776C130.797 33.1262 130.157 33.3984 129.34 33.3984V35.3984ZM132.77 33.9647C133.458 33.245 133.82 32.3666 133.82 31.375H131.82C131.82 31.8365 131.667 32.2237 131.324 32.5822L132.77 33.9647ZM133.82 31.375C133.82 30.5257 133.384 29.8413 132.755 29.3324C132.149 28.8411 131.315 28.4664 130.334 28.1682L129.752 30.0818C130.622 30.3461 131.177 30.6276 131.496 30.8864C131.794 31.1275 131.82 31.2868 131.82 31.375H133.82ZM130.33 28.1672C129.838 28.0194 129.069 27.8155 128.036 27.5572L127.55 29.4975C128.58 29.7548 129.311 29.9493 129.756 30.0828L130.33 28.1672ZM128.021 27.5537C126.923 27.2967 126.164 27.0944 125.719 26.9458L125.086 28.8432C125.625 29.0228 126.46 29.2424 127.565 29.501L128.021 27.5537ZM125.77 26.9644C124.188 26.3402 123.406 25.4749 123.135 24.4416L121.201 24.949C121.68 26.7751 123.054 28.0426 125.035 28.8247L125.77 26.9644ZM123.144 24.4784C123.068 24.1335 123.027 23.7613 123.027 23.3594H121.027C121.027 23.895 121.081 24.4134 121.192 24.9122L123.144 24.4784ZM130.305 20.6523V17.875H128.305V20.6523H130.305ZM129.305 18.875C131.034 18.875 132.377 19.5013 133.421 20.7628L134.962 19.4872C133.522 17.7487 131.606 16.875 129.305 16.875V18.875ZM133.412 20.752C134.068 21.5668 134.352 22.3592 134.352 23.1484H136.352C136.352 21.8283 135.862 20.6051 134.97 19.498L133.412 20.752ZM135.189 22.1617L132.412 22.6187L132.737 24.5922L135.514 24.1352L135.189 22.1617ZM133.574 23.6055C133.574 22.768 133.341 21.9962 132.836 21.3473C132.339 20.7095 131.635 20.2622 130.809 19.9596L130.121 21.8373C130.701 22.0503 131.052 22.312 131.258 22.5766C131.456 22.83 131.574 23.1539 131.574 23.6055H133.574ZM130.827 19.9664C130.322 19.7698 129.81 19.6523 129.305 19.6523V21.6523C129.502 21.6523 129.764 21.699 130.102 21.8304L130.827 19.9664ZM137.742 23.0781L136.742 23.0564L136.742 23.0673V23.0781H137.742ZM139.289 19.8789L138.575 19.1785L138.566 19.188L139.289 19.8789ZM143.719 17.9805H144.719V16.9669L143.705 16.9806L143.719 17.9805ZM143.719 20.7578V21.7578H144.719V20.7578H143.719ZM141.082 22.2344L140.241 21.6936L140.235 21.7032L140.229 21.7129L141.082 22.2344ZM140.695 25.7852H139.695V26.7852H140.695V25.7852ZM148.57 25.7852V26.7852H149.57V25.7852H148.57ZM146.953 21.0742L146.523 21.9771L146.53 21.9806L146.538 21.9839L146.953 21.0742ZM145.441 20.7227H144.441V21.7227H145.441V20.7227ZM145.441 17.9805V16.9805H144.441V17.9805H145.441ZM149.766 19.7031L150.456 18.9801L150.447 18.9712L150.438 18.9626L149.766 19.7031ZM151.383 23.043H152.383V23.0334L152.383 23.0237L151.383 23.043ZM151.383 28.6328V29.6328H152.383V28.6328H151.383ZM140.695 28.6328V27.6328H139.695V28.6328H140.695ZM141.82 33.625L141.22 34.425L141.235 34.4364L141.251 34.4472L141.82 33.625ZM143.754 34.2578H144.754V33.2578H143.754V34.2578ZM143.754 37V38H144.754V37H143.754ZM138.727 34.3984L139.545 33.8235L139.539 33.8152L138.727 34.3984ZM145.441 37H144.441V38H145.441V37ZM145.441 34.2227V33.2227H144.441V34.2227H145.441ZM148.605 32.3945L149.472 32.8943L149.478 32.8839L149.483 32.8734L148.605 32.3945ZM148.922 31.6562L149.266 30.7172L148.269 30.3522L147.964 31.3689L148.922 31.6562ZM151.418 32.5703L152.386 32.8227L152.615 31.9437L151.762 31.6313L151.418 32.5703ZM148.535 36.2266L149.008 37.1078L149.015 37.1039L148.535 36.2266ZM138.742 31.7969V23.0781H136.742V31.7969H138.742ZM138.742 23.0999C138.758 22.3484 139.115 21.5084 140.012 20.5698L138.566 19.188C137.447 20.3587 136.773 21.6516 136.742 23.0564L138.742 23.0999ZM140.003 20.5792C141.038 19.5247 142.263 19.0002 143.732 18.9804L143.705 16.9806C141.706 17.0076 139.978 17.7487 138.575 19.1786L140.003 20.5792ZM142.719 17.9805V20.7578H144.719V17.9805H142.719ZM143.719 19.7578C142.237 19.7578 141.049 20.4369 140.241 21.6936L141.923 22.7751C142.381 22.0631 142.95 21.7578 143.719 21.7578V19.7578ZM140.229 21.7129C139.912 22.231 139.695 22.7988 139.695 23.3945H141.695C141.695 23.2872 141.736 23.0815 141.935 22.7558L140.229 21.7129ZM139.695 23.3945V25.7852H141.695V23.3945H139.695ZM140.695 26.7852H148.57V24.7852H140.695V26.7852ZM149.57 25.7852V23.3945H147.57V25.7852H149.57ZM149.57 23.3945C149.57 22.688 149.387 22.0257 148.986 21.4516C148.591 20.8848 148.029 20.4661 147.368 20.1645L146.538 21.9839C146.955 22.1745 147.202 22.3887 147.346 22.5952C147.485 22.7946 147.57 23.0464 147.57 23.3945H149.57ZM147.383 20.1714C146.764 19.8768 146.114 19.7227 145.441 19.7227V21.7227C145.8 21.7227 146.157 21.8029 146.523 21.9771L147.383 20.1714ZM146.441 20.7227V17.9805H144.441V20.7227H146.441ZM145.441 18.9805C146.795 18.9805 148.001 19.4518 149.094 20.4437L150.438 18.9626C148.999 17.6575 147.322 16.9805 145.441 16.9805V18.9805ZM149.075 20.4261C149.977 21.2887 150.366 22.1612 150.383 23.0622L152.383 23.0237C152.353 21.4872 151.663 20.1332 150.456 18.9801L149.075 20.4261ZM150.383 23.043V28.6328H152.383V23.043H150.383ZM151.383 27.6328H140.695V29.6328H151.383V27.6328ZM139.695 28.6328V31.7969H141.695V28.6328H139.695ZM139.695 31.7969C139.695 32.8874 140.333 33.7592 141.22 34.425L142.42 32.825C141.808 32.3658 141.695 32.0189 141.695 31.7969H139.695ZM141.251 34.4472C142.012 34.9739 142.852 35.2578 143.754 35.2578V33.2578C143.296 33.2578 142.848 33.1199 142.39 32.8028L141.251 34.4472ZM142.754 34.2578V37H144.754V34.2578H142.754ZM143.754 36C141.944 36 140.575 35.2894 139.545 33.8235L137.908 34.9734C139.316 36.9762 141.298 38 143.754 38V36ZM139.539 33.8152C138.96 33.0093 138.742 32.3429 138.742 31.7969H136.742C136.742 32.8915 137.18 33.9594 137.914 34.9816L139.539 33.8152ZM146.441 37V34.2227H144.441V37H146.441ZM145.441 35.2227C147.205 35.2227 148.59 34.4223 149.472 32.8943L147.739 31.8948C147.215 32.8042 146.49 33.2227 145.441 33.2227V35.2227ZM149.483 32.8734C149.651 32.5664 149.786 32.256 149.88 31.9436L147.964 31.3689C147.917 31.5252 147.841 31.7071 147.728 31.9157L149.483 32.8734ZM148.578 32.5953L151.074 33.5093L151.762 31.6313L149.266 30.7172L148.578 32.5953ZM150.45 32.3179C150.1 33.6616 149.32 34.6577 148.055 35.3492L149.015 37.1039C150.75 36.1548 151.892 34.7134 152.386 32.8227L150.45 32.3179ZM148.062 35.3454C147.248 35.7822 146.38 36 145.441 36V38C146.706 38 147.9 37.7022 149.008 37.1077L148.062 35.3454Z" fill="black" mask="url(#path-1-outside-1_1_14)"/>
<mask id="path-3-outside-2_1_14" maskUnits="userSpaceOnUse" x="7" y="46" width="137" height="14" fill="black">
<rect fill="white" x="7" y="46" width="137" height="14"/>
<path d="M11.892 53.584L9.348 49.48H10.308L12.612 53.26H14.208V49.48H15.132V53.26H16.728L19.02 49.48H19.992L17.436 53.584L20.304 58H19.332L16.848 54.004H15.132V58H14.208V54.004H12.492L10.008 58H9.036L11.892 53.584ZM23.7038 56.74L28.9838 49.48H29.6798V58H28.8398V50.86L23.6438 58H22.8758V49.48H23.7038V56.74ZM35.2123 51.736C35.1163 52.864 34.9923 53.828 34.8403 54.628C34.6963 55.428 34.5123 56.084 34.2883 56.596C34.0723 57.1 33.8083 57.472 33.4963 57.712C33.1923 57.944 32.8323 58.06 32.4163 58.06L32.2723 57.256C32.4323 57.248 32.5843 57.216 32.7283 57.16C32.8803 57.104 33.0243 57.004 33.1603 56.86C33.2963 56.708 33.4243 56.504 33.5443 56.248C33.6643 55.984 33.7763 55.648 33.8803 55.24C33.9843 54.824 34.0763 54.324 34.1563 53.74C34.2443 53.156 34.3203 52.464 34.3843 51.664L34.5643 49.48H38.8963V58H38.0683V50.224H35.3323L35.2123 51.736ZM45.957 58.06C45.365 58.06 44.821 57.94 44.325 57.7C43.837 57.452 43.417 57.128 43.065 56.728C42.713 56.32 42.441 55.856 42.249 55.336C42.057 54.816 41.961 54.284 41.961 53.74C41.961 53.172 42.061 52.628 42.261 52.108C42.469 51.588 42.753 51.128 43.113 50.728C43.473 50.328 43.897 50.012 44.385 49.78C44.873 49.54 45.401 49.42 45.969 49.42C46.561 49.42 47.101 49.548 47.589 49.804C48.085 50.052 48.505 50.38 48.849 50.788C49.201 51.196 49.473 51.66 49.665 52.18C49.857 52.692 49.953 53.216 49.953 53.752C49.953 54.32 49.849 54.864 49.641 55.384C49.441 55.904 49.161 56.364 48.801 56.764C48.449 57.156 48.029 57.472 47.541 57.712C47.053 57.944 46.525 58.06 45.957 58.06ZM42.801 53.74C42.801 54.204 42.877 54.652 43.029 55.084C43.181 55.508 43.397 55.888 43.677 56.224C43.957 56.552 44.289 56.816 44.673 57.016C45.057 57.208 45.485 57.304 45.957 57.304C46.437 57.304 46.873 57.2 47.265 56.992C47.657 56.784 47.989 56.512 48.261 56.176C48.533 55.84 48.741 55.46 48.885 55.036C49.037 54.612 49.113 54.18 49.113 53.74C49.113 53.276 49.033 52.832 48.873 52.408C48.721 51.976 48.505 51.596 48.225 51.268C47.945 50.94 47.613 50.68 47.229 50.488C46.845 50.288 46.421 50.188 45.957 50.188C45.477 50.188 45.041 50.292 44.649 50.5C44.257 50.7 43.925 50.968 43.653 51.304C43.381 51.64 43.169 52.02 43.017 52.444C42.873 52.868 42.801 53.3 42.801 53.74ZM58.2567 47.008C58.2407 47.392 58.0767 47.7 57.7647 47.932C57.4607 48.156 57.0367 48.268 56.4927 48.268C55.9487 48.268 55.5207 48.156 55.2087 47.932C54.9047 47.7 54.7447 47.392 54.7287 47.008H55.2447C55.2447 47.112 55.2767 47.212 55.3407 47.308C55.4047 47.404 55.4927 47.488 55.6047 47.56C55.7167 47.632 55.8487 47.692 56.0007 47.74C56.1527 47.78 56.3207 47.8 56.5047 47.8C56.8487 47.8 57.1327 47.728 57.3567 47.584C57.5887 47.432 57.7207 47.24 57.7527 47.008H58.2567ZM53.8167 56.74L59.0967 49.48H59.7927V58H58.9527V50.86L53.7567 58H52.9887V49.48H53.8167V56.74ZM68.7319 53.26H70.0279L72.8119 49.48H73.7719L70.7839 53.584L74.0839 58H73.1239L70.0999 54.004H68.7319V58H67.9039V49.48H68.7319V53.26ZM79.6545 58.06C79.0625 58.06 78.5185 57.94 78.0225 57.7C77.5345 57.452 77.1145 57.128 76.7625 56.728C76.4105 56.32 76.1385 55.856 75.9465 55.336C75.7545 54.816 75.6585 54.284 75.6585 53.74C75.6585 53.172 75.7585 52.628 75.9585 52.108C76.1665 51.588 76.4505 51.128 76.8105 50.728C77.1705 50.328 77.5945 50.012 78.0825 49.78C78.5705 49.54 79.0985 49.42 79.6665 49.42C80.2585 49.42 80.7985 49.548 81.2865 49.804C81.7825 50.052 82.2025 50.38 82.5465 50.788C82.8985 51.196 83.1705 51.66 83.3625 52.18C83.5545 52.692 83.6505 53.216 83.6505 53.752C83.6505 54.32 83.5465 54.864 83.3385 55.384C83.1385 55.904 82.8585 56.364 82.4985 56.764C82.1465 57.156 81.7265 57.472 81.2385 57.712C80.7505 57.944 80.2225 58.06 79.6545 58.06ZM76.4985 53.74C76.4985 54.204 76.5745 54.652 76.7265 55.084C76.8785 55.508 77.0945 55.888 77.3745 56.224C77.6545 56.552 77.9865 56.816 78.3705 57.016C78.7545 57.208 79.1825 57.304 79.6545 57.304C80.1345 57.304 80.5705 57.2 80.9625 56.992C81.3545 56.784 81.6865 56.512 81.9585 56.176C82.2305 55.84 82.4385 55.46 82.5825 55.036C82.7345 54.612 82.8105 54.18 82.8105 53.74C82.8105 53.276 82.7305 52.832 82.5705 52.408C82.4185 51.976 82.2025 51.596 81.9225 51.268C81.6425 50.94 81.3105 50.68 80.9265 50.488C80.5425 50.288 80.1185 50.188 79.6545 50.188C79.1745 50.188 78.7385 50.292 78.3465 50.5C77.9545 50.7 77.6225 50.968 77.3505 51.304C77.0785 51.64 76.8665 52.02 76.7145 52.444C76.5705 52.868 76.4985 53.3 76.4985 53.74ZM94.2222 58V51.004L91.1142 56.416H90.6222L87.5142 51.004V58H86.6742V49.48H87.5382L90.8622 55.312L94.2102 49.48H95.0622V58H94.2222ZM98.6848 49.48H105.261V58H104.421V50.224H99.5128V58H98.6848V49.48ZM110.787 51.736C110.691 52.864 110.567 53.828 110.415 54.628C110.271 55.428 110.087 56.084 109.863 56.596C109.647 57.1 109.383 57.472 109.071 57.712C108.767 57.944 108.407 58.06 107.991 58.06L107.847 57.256C108.007 57.248 108.159 57.216 108.303 57.16C108.455 57.104 108.599 57.004 108.735 56.86C108.871 56.708 108.999 56.504 109.119 56.248C109.239 55.984 109.351 55.648 109.455 55.24C109.559 54.824 109.651 54.324 109.731 53.74C109.819 53.156 109.895 52.464 109.959 51.664L110.139 49.48H114.471V58H113.643V50.224H110.907L110.787 51.736ZM123.824 57.256V58H118.1V49.48H123.716V50.224H118.94V53.296H123.104V54.004H118.94V57.256H123.824ZM127.692 53.26H128.988L131.772 49.48H132.732L129.744 53.584L133.044 58H132.084L129.06 54.004H127.692V58H126.864V49.48H127.692V53.26ZM134.607 53.68C134.607 53.168 134.695 52.66 134.871 52.156C135.055 51.644 135.319 51.188 135.663 50.788C136.007 50.388 136.431 50.064 136.935 49.816C137.439 49.56 138.011 49.432 138.651 49.432C139.411 49.432 140.059 49.604 140.595 49.948C141.139 50.292 141.539 50.74 141.795 51.292L141.135 51.7C140.999 51.42 140.831 51.184 140.631 50.992C140.439 50.8 140.231 50.644 140.007 50.524C139.783 50.404 139.551 50.32 139.311 50.272C139.071 50.216 138.835 50.188 138.603 50.188C138.091 50.188 137.639 50.292 137.247 50.5C136.855 50.708 136.523 50.98 136.251 51.316C135.987 51.652 135.787 52.032 135.651 52.456C135.515 52.872 135.447 53.296 135.447 53.728C135.447 54.2 135.527 54.652 135.687 55.084C135.855 55.516 136.079 55.9 136.359 56.236C136.647 56.564 136.983 56.828 137.367 57.028C137.759 57.22 138.183 57.316 138.639 57.316C138.879 57.316 139.123 57.288 139.371 57.232C139.627 57.168 139.871 57.072 140.103 56.944C140.343 56.808 140.563 56.644 140.763 56.452C140.963 56.252 141.131 56.012 141.267 55.732L141.963 56.092C141.827 56.412 141.635 56.696 141.387 56.944C141.139 57.184 140.863 57.388 140.559 57.556C140.255 57.724 139.931 57.852 139.587 57.94C139.251 58.028 138.919 58.072 138.591 58.072C138.007 58.072 137.471 57.944 136.983 57.688C136.495 57.432 136.075 57.1 135.723 56.692C135.371 56.276 135.095 55.808 134.895 55.288C134.703 54.76 134.607 54.224 134.607 53.68Z"/>
</mask>
<path d="M11.892 53.584L9.348 49.48H10.308L12.612 53.26H14.208V49.48H15.132V53.26H16.728L19.02 49.48H19.992L17.436 53.584L20.304 58H19.332L16.848 54.004H15.132V58H14.208V54.004H12.492L10.008 58H9.036L11.892 53.584ZM23.7038 56.74L28.9838 49.48H29.6798V58H28.8398V50.86L23.6438 58H22.8758V49.48H23.7038V56.74ZM35.2123 51.736C35.1163 52.864 34.9923 53.828 34.8403 54.628C34.6963 55.428 34.5123 56.084 34.2883 56.596C34.0723 57.1 33.8083 57.472 33.4963 57.712C33.1923 57.944 32.8323 58.06 32.4163 58.06L32.2723 57.256C32.4323 57.248 32.5843 57.216 32.7283 57.16C32.8803 57.104 33.0243 57.004 33.1603 56.86C33.2963 56.708 33.4243 56.504 33.5443 56.248C33.6643 55.984 33.7763 55.648 33.8803 55.24C33.9843 54.824 34.0763 54.324 34.1563 53.74C34.2443 53.156 34.3203 52.464 34.3843 51.664L34.5643 49.48H38.8963V58H38.0683V50.224H35.3323L35.2123 51.736ZM45.957 58.06C45.365 58.06 44.821 57.94 44.325 57.7C43.837 57.452 43.417 57.128 43.065 56.728C42.713 56.32 42.441 55.856 42.249 55.336C42.057 54.816 41.961 54.284 41.961 53.74C41.961 53.172 42.061 52.628 42.261 52.108C42.469 51.588 42.753 51.128 43.113 50.728C43.473 50.328 43.897 50.012 44.385 49.78C44.873 49.54 45.401 49.42 45.969 49.42C46.561 49.42 47.101 49.548 47.589 49.804C48.085 50.052 48.505 50.38 48.849 50.788C49.201 51.196 49.473 51.66 49.665 52.18C49.857 52.692 49.953 53.216 49.953 53.752C49.953 54.32 49.849 54.864 49.641 55.384C49.441 55.904 49.161 56.364 48.801 56.764C48.449 57.156 48.029 57.472 47.541 57.712C47.053 57.944 46.525 58.06 45.957 58.06ZM42.801 53.74C42.801 54.204 42.877 54.652 43.029 55.084C43.181 55.508 43.397 55.888 43.677 56.224C43.957 56.552 44.289 56.816 44.673 57.016C45.057 57.208 45.485 57.304 45.957 57.304C46.437 57.304 46.873 57.2 47.265 56.992C47.657 56.784 47.989 56.512 48.261 56.176C48.533 55.84 48.741 55.46 48.885 55.036C49.037 54.612 49.113 54.18 49.113 53.74C49.113 53.276 49.033 52.832 48.873 52.408C48.721 51.976 48.505 51.596 48.225 51.268C47.945 50.94 47.613 50.68 47.229 50.488C46.845 50.288 46.421 50.188 45.957 50.188C45.477 50.188 45.041 50.292 44.649 50.5C44.257 50.7 43.925 50.968 43.653 51.304C43.381 51.64 43.169 52.02 43.017 52.444C42.873 52.868 42.801 53.3 42.801 53.74ZM58.2567 47.008C58.2407 47.392 58.0767 47.7 57.7647 47.932C57.4607 48.156 57.0367 48.268 56.4927 48.268C55.9487 48.268 55.5207 48.156 55.2087 47.932C54.9047 47.7 54.7447 47.392 54.7287 47.008H55.2447C55.2447 47.112 55.2767 47.212 55.3407 47.308C55.4047 47.404 55.4927 47.488 55.6047 47.56C55.7167 47.632 55.8487 47.692 56.0007 47.74C56.1527 47.78 56.3207 47.8 56.5047 47.8C56.8487 47.8 57.1327 47.728 57.3567 47.584C57.5887 47.432 57.7207 47.24 57.7527 47.008H58.2567ZM53.8167 56.74L59.0967 49.48H59.7927V58H58.9527V50.86L53.7567 58H52.9887V49.48H53.8167V56.74ZM68.7319 53.26H70.0279L72.8119 49.48H73.7719L70.7839 53.584L74.0839 58H73.1239L70.0999 54.004H68.7319V58H67.9039V49.48H68.7319V53.26ZM79.6545 58.06C79.0625 58.06 78.5185 57.94 78.0225 57.7C77.5345 57.452 77.1145 57.128 76.7625 56.728C76.4105 56.32 76.1385 55.856 75.9465 55.336C75.7545 54.816 75.6585 54.284 75.6585 53.74C75.6585 53.172 75.7585 52.628 75.9585 52.108C76.1665 51.588 76.4505 51.128 76.8105 50.728C77.1705 50.328 77.5945 50.012 78.0825 49.78C78.5705 49.54 79.0985 49.42 79.6665 49.42C80.2585 49.42 80.7985 49.548 81.2865 49.804C81.7825 50.052 82.2025 50.38 82.5465 50.788C82.8985 51.196 83.1705 51.66 83.3625 52.18C83.5545 52.692 83.6505 53.216 83.6505 53.752C83.6505 54.32 83.5465 54.864 83.3385 55.384C83.1385 55.904 82.8585 56.364 82.4985 56.764C82.1465 57.156 81.7265 57.472 81.2385 57.712C80.7505 57.944 80.2225 58.06 79.6545 58.06ZM76.4985 53.74C76.4985 54.204 76.5745 54.652 76.7265 55.084C76.8785 55.508 77.0945 55.888 77.3745 56.224C77.6545 56.552 77.9865 56.816 78.3705 57.016C78.7545 57.208 79.1825 57.304 79.6545 57.304C80.1345 57.304 80.5705 57.2 80.9625 56.992C81.3545 56.784 81.6865 56.512 81.9585 56.176C82.2305 55.84 82.4385 55.46 82.5825 55.036C82.7345 54.612 82.8105 54.18 82.8105 53.74C82.8105 53.276 82.7305 52.832 82.5705 52.408C82.4185 51.976 82.2025 51.596 81.9225 51.268C81.6425 50.94 81.3105 50.68 80.9265 50.488C80.5425 50.288 80.1185 50.188 79.6545 50.188C79.1745 50.188 78.7385 50.292 78.3465 50.5C77.9545 50.7 77.6225 50.968 77.3505 51.304C77.0785 51.64 76.8665 52.02 76.7145 52.444C76.5705 52.868 76.4985 53.3 76.4985 53.74ZM94.2222 58V51.004L91.1142 56.416H90.6222L87.5142 51.004V58H86.6742V49.48H87.5382L90.8622 55.312L94.2102 49.48H95.0622V58H94.2222ZM98.6848 49.48H105.261V58H104.421V50.224H99.5128V58H98.6848V49.48ZM110.787 51.736C110.691 52.864 110.567 53.828 110.415 54.628C110.271 55.428 110.087 56.084 109.863 56.596C109.647 57.1 109.383 57.472 109.071 57.712C108.767 57.944 108.407 58.06 107.991 58.06L107.847 57.256C108.007 57.248 108.159 57.216 108.303 57.16C108.455 57.104 108.599 57.004 108.735 56.86C108.871 56.708 108.999 56.504 109.119 56.248C109.239 55.984 109.351 55.648 109.455 55.24C109.559 54.824 109.651 54.324 109.731 53.74C109.819 53.156 109.895 52.464 109.959 51.664L110.139 49.48H114.471V58H113.643V50.224H110.907L110.787 51.736ZM123.824 57.256V58H118.1V49.48H123.716V50.224H118.94V53.296H123.104V54.004H118.94V57.256H123.824ZM127.692 53.26H128.988L131.772 49.48H132.732L129.744 53.584L133.044 58H132.084L129.06 54.004H127.692V58H126.864V49.48H127.692V53.26ZM134.607 53.68C134.607 53.168 134.695 52.66 134.871 52.156C135.055 51.644 135.319 51.188 135.663 50.788C136.007 50.388 136.431 50.064 136.935 49.816C137.439 49.56 138.011 49.432 138.651 49.432C139.411 49.432 140.059 49.604 140.595 49.948C141.139 50.292 141.539 50.74 141.795 51.292L141.135 51.7C140.999 51.42 140.831 51.184 140.631 50.992C140.439 50.8 140.231 50.644 140.007 50.524C139.783 50.404 139.551 50.32 139.311 50.272C139.071 50.216 138.835 50.188 138.603 50.188C138.091 50.188 137.639 50.292 137.247 50.5C136.855 50.708 136.523 50.98 136.251 51.316C135.987 51.652 135.787 52.032 135.651 52.456C135.515 52.872 135.447 53.296 135.447 53.728C135.447 54.2 135.527 54.652 135.687 55.084C135.855 55.516 136.079 55.9 136.359 56.236C136.647 56.564 136.983 56.828 137.367 57.028C137.759 57.22 138.183 57.316 138.639 57.316C138.879 57.316 139.123 57.288 139.371 57.232C139.627 57.168 139.871 57.072 140.103 56.944C140.343 56.808 140.563 56.644 140.763 56.452C140.963 56.252 141.131 56.012 141.267 55.732L141.963 56.092C141.827 56.412 141.635 56.696 141.387 56.944C141.139 57.184 140.863 57.388 140.559 57.556C140.255 57.724 139.931 57.852 139.587 57.94C139.251 58.028 138.919 58.072 138.591 58.072C138.007 58.072 137.471 57.944 136.983 57.688C136.495 57.432 136.075 57.1 135.723 56.692C135.371 56.276 135.095 55.808 134.895 55.288C134.703 54.76 134.607 54.224 134.607 53.68Z" fill="white"/>
<path d="M11.892 53.584L12.7317 54.1271L13.0756 53.5953L12.7419 53.0571L11.892 53.584ZM9.348 49.48V48.48H7.55157L8.49805 50.0069L9.348 49.48ZM10.308 49.48L11.1619 48.9595L10.8696 48.48H10.308V49.48ZM12.612 53.26L11.7581 53.7805L12.0504 54.26H12.612V53.26ZM14.208 53.26V54.26H15.208V53.26H14.208ZM14.208 49.48V48.48H13.208V49.48H14.208ZM15.132 49.48H16.132V48.48H15.132V49.48ZM15.132 53.26H14.132V54.26H15.132V53.26ZM16.728 53.26V54.26H17.2911L17.5831 53.7785L16.728 53.26ZM19.02 49.48V48.48H18.4569L18.1649 48.9615L19.02 49.48ZM19.992 49.48L20.8408 50.0087L21.7929 48.48H19.992V49.48ZM17.436 53.584L16.5872 53.0553L16.2509 53.5952L16.5973 54.1287L17.436 53.584ZM20.304 58V59H22.1458L21.1427 57.4553L20.304 58ZM19.332 58L18.4827 58.5279L18.7762 59H19.332V58ZM16.848 54.004L17.6973 53.4761L17.4038 53.004H16.848V54.004ZM15.132 54.004V53.004H14.132V54.004H15.132ZM15.132 58V59H16.132V58H15.132ZM14.208 58H13.208V59H14.208V58ZM14.208 54.004H15.208V53.004H14.208V54.004ZM12.492 54.004V53.004H11.9362L11.6427 53.4761L12.492 54.004ZM10.008 58V59H10.5638L10.8573 58.5279L10.008 58ZM9.036 58L8.19631 57.4569L7.19835 59H9.036V58ZM12.7419 53.0571L10.1979 48.9531L8.49805 50.0069L11.0421 54.1109L12.7419 53.0571ZM9.348 50.48H10.308V48.48H9.348V50.48ZM9.45412 50.0005L11.7581 53.7805L13.4659 52.7395L11.1619 48.9595L9.45412 50.0005ZM12.612 54.26H14.208V52.26H12.612V54.26ZM15.208 53.26V49.48H13.208V53.26H15.208ZM14.208 50.48H15.132V48.48H14.208V50.48ZM14.132 49.48V53.26H16.132V49.48H14.132ZM15.132 54.26H16.728V52.26H15.132V54.26ZM17.5831 53.7785L19.8751 49.9985L18.1649 48.9615L15.8729 52.7415L17.5831 53.7785ZM19.02 50.48H19.992V48.48H19.02V50.48ZM19.1432 48.9513L16.5872 53.0553L18.2848 54.1127L20.8408 50.0087L19.1432 48.9513ZM16.5973 54.1287L19.4653 58.5447L21.1427 57.4553L18.2747 53.0393L16.5973 54.1287ZM20.304 57H19.332V59H20.304V57ZM20.1813 57.4721L17.6973 53.4761L15.9987 54.5319L18.4827 58.5279L20.1813 57.4721ZM16.848 53.004H15.132V55.004H16.848V53.004ZM14.132 54.004V58H16.132V54.004H14.132ZM15.132 57H14.208V59H15.132V57ZM15.208 58V54.004H13.208V58H15.208ZM14.208 53.004H12.492V55.004H14.208V53.004ZM11.6427 53.4761L9.15871 57.4721L10.8573 58.5279L13.3413 54.5319L11.6427 53.4761ZM10.008 57H9.036V59H10.008V57ZM9.87569 58.5431L12.7317 54.1271L11.0523 53.0409L8.19631 57.4569L9.87569 58.5431ZM23.7038 56.74H22.7038V59.8152L24.5125 57.3282L23.7038 56.74ZM28.9838 49.48V48.48H28.4745L28.175 48.8918L28.9838 49.48ZM29.6798 49.48H30.6798V48.48H29.6798V49.48ZM29.6798 58V59H30.6798V58H29.6798ZM28.8398 58H27.8398V59H28.8398V58ZM28.8398 50.86H29.8398V47.7864L28.0312 50.2716L28.8398 50.86ZM23.6438 58V59H24.1528L24.4523 58.5884L23.6438 58ZM22.8758 58H21.8758V59H22.8758V58ZM22.8758 49.48V48.48H21.8758V49.48H22.8758ZM23.7038 49.48H24.7038V48.48H23.7038V49.48ZM24.5125 57.3282L29.7925 50.0682L28.175 48.8918L22.895 56.1518L24.5125 57.3282ZM28.9838 50.48H29.6798V48.48H28.9838V50.48ZM28.6798 49.48V58H30.6798V49.48H28.6798ZM29.6798 57H28.8398V59H29.6798V57ZM29.8398 58V50.86H27.8398V58H29.8398ZM28.0312 50.2716L22.8352 57.4116L24.4523 58.5884L29.6483 51.4484L28.0312 50.2716ZM23.6438 57H22.8758V59H23.6438V57ZM23.8758 58V49.48H21.8758V58H23.8758ZM22.8758 50.48H23.7038V48.48H22.8758V50.48ZM22.7038 49.48V56.74H24.7038V49.48H22.7038ZM35.2123 51.736L36.2087 51.8208L36.2092 51.8151L35.2123 51.736ZM34.8403 54.628L33.8578 54.4413L33.8561 54.4508L34.8403 54.628ZM34.2883 56.596L33.3721 56.1952L33.3692 56.2021L34.2883 56.596ZM33.4963 57.712L34.103 58.507L34.106 58.5046L33.4963 57.712ZM32.4163 58.06L31.432 58.2363L31.5795 59.06H32.4163V58.06ZM32.2723 57.256L32.2224 56.2572L31.0877 56.314L31.288 57.4323L32.2723 57.256ZM32.7283 57.16L32.3826 56.2217L32.3742 56.2248L32.3659 56.228L32.7283 57.16ZM33.1603 56.86L33.8873 57.5466L33.8966 57.5368L33.9056 57.5268L33.1603 56.86ZM33.5443 56.248L34.4498 56.6725L34.4547 56.6618L33.5443 56.248ZM33.8803 55.24L34.8493 55.487L34.8505 55.4825L33.8803 55.24ZM34.1563 53.74L33.1674 53.591L33.1656 53.6043L34.1563 53.74ZM34.3843 51.664L33.3877 51.5819L33.3875 51.5843L34.3843 51.664ZM34.5643 49.48V48.48H33.6433L33.5677 49.3979L34.5643 49.48ZM38.8963 49.48H39.8963V48.48H38.8963V49.48ZM38.8963 58V59H39.8963V58H38.8963ZM38.0683 58H37.0683V59H38.0683V58ZM38.0683 50.224H39.0683V49.224H38.0683V50.224ZM35.3323 50.224V49.224H34.4085L34.3354 50.1449L35.3323 50.224ZM34.2159 51.6512C34.1218 52.7571 34.0016 53.6852 33.8579 54.4413L35.8227 54.8147C35.9831 53.9708 36.1108 52.9709 36.2087 51.8208L34.2159 51.6512ZM33.8561 54.4508C33.7203 55.2053 33.5542 55.7791 33.3722 56.1952L35.2045 56.9968C35.4705 56.3889 35.6723 55.6507 35.8245 54.8052L33.8561 54.4508ZM33.3692 56.2021C33.1954 56.6076 33.0202 56.8166 32.8866 56.9194L34.106 58.5046C34.5965 58.1274 34.9492 57.5924 35.2075 56.9899L33.3692 56.2021ZM32.8896 56.917C32.7755 57.0042 32.6335 57.06 32.4163 57.06V59.06C33.0311 59.06 33.6091 58.8838 34.103 58.507L32.8896 56.917ZM33.4007 57.8837L33.2567 57.0797L31.288 57.4323L31.432 58.2363L33.4007 57.8837ZM32.3223 58.2548C32.5853 58.2416 32.8432 58.1883 33.0908 58.092L32.3659 56.228C32.3254 56.2437 32.2793 56.2544 32.2224 56.2572L32.3223 58.2548ZM33.074 58.0983C33.3995 57.9784 33.6686 57.7783 33.8873 57.5466L32.4333 56.1734C32.3801 56.2297 32.3611 56.2296 32.3826 56.2217L33.074 58.0983ZM33.9056 57.5268C34.1261 57.2803 34.3031 56.9853 34.4498 56.6724L32.6389 55.8236C32.5455 56.0227 32.4665 56.1357 32.4151 56.1932L33.9056 57.5268ZM34.4547 56.6618C34.6073 56.3259 34.7366 55.9291 34.8493 55.487L32.9113 54.993C32.816 55.3669 32.7213 55.6421 32.6339 55.8342L34.4547 56.6618ZM34.8505 55.4825C34.9658 55.0211 35.0638 54.4834 35.1471 53.8757L33.1656 53.6043C33.0888 54.1646 33.0028 54.6269 32.9102 54.9975L34.8505 55.4825ZM35.1452 53.889C35.2376 53.2755 35.3159 52.5593 35.3811 51.7437L33.3875 51.5843C33.3247 52.3687 33.251 53.0365 33.1675 53.591L35.1452 53.889ZM35.3809 51.7461L35.5609 49.5621L33.5677 49.3979L33.3877 51.5819L35.3809 51.7461ZM34.5643 50.48H38.8963V48.48H34.5643V50.48ZM37.8963 49.48V58H39.8963V49.48H37.8963ZM38.8963 57H38.0683V59H38.8963V57ZM39.0683 58V50.224H37.0683V58H39.0683ZM38.0683 49.224H35.3323V51.224H38.0683V49.224ZM34.3354 50.1449L34.2154 51.6569L36.2092 51.8151L36.3292 50.3031L34.3354 50.1449ZM44.325 57.7L43.8719 58.5915L43.8807 58.5959L43.8894 58.6002L44.325 57.7ZM43.065 56.728L42.3078 57.3813L42.3143 57.3886L43.065 56.728ZM42.249 55.336L43.1871 54.9896L43.1871 54.9896L42.249 55.336ZM42.261 52.108L41.3324 51.7366L41.3277 51.749L42.261 52.108ZM43.113 50.728L43.8563 51.397L43.8563 51.397L43.113 50.728ZM44.385 49.78L44.8144 50.6832L44.8263 50.6773L44.385 49.78ZM47.589 49.804L47.1245 50.6895L47.1331 50.6941L47.1418 50.6984L47.589 49.804ZM48.849 50.788L48.0844 51.4326L48.0918 51.4412L48.849 50.788ZM49.665 52.18L48.7269 52.5264L48.7287 52.5311L49.665 52.18ZM49.641 55.384L48.7124 55.0126L48.7077 55.025L49.641 55.384ZM48.801 56.764L48.0577 56.095L48.057 56.0959L48.801 56.764ZM47.541 57.712L47.9704 58.6152L47.9823 58.6093L47.541 57.712ZM43.029 55.084L42.0857 55.4159L42.0877 55.4215L43.029 55.084ZM43.677 56.224L42.9087 56.8642L42.9164 56.8733L43.677 56.224ZM44.673 57.016L44.2111 57.9029L44.2184 57.9067L44.2258 57.9104L44.673 57.016ZM47.265 56.992L46.7963 56.1087L46.7963 56.1087L47.265 56.992ZM48.261 56.176L47.4838 55.5468L47.4838 55.5468L48.261 56.176ZM48.885 55.036L47.9437 54.6985L47.9408 54.7065L47.9381 54.7144L48.885 55.036ZM48.873 52.408L47.9297 52.7399L47.9334 52.7505L47.9374 52.7611L48.873 52.408ZM48.225 51.268L47.4644 51.9173L47.4644 51.9173L48.225 51.268ZM47.229 50.488L46.7671 51.3749L46.7744 51.3787L46.7818 51.3824L47.229 50.488ZM44.649 50.5L45.1035 51.3908L45.1106 51.3871L45.1177 51.3833L44.649 50.5ZM43.653 51.304L44.4302 51.9332L44.4302 51.9332L43.653 51.304ZM43.017 52.444L42.0757 52.1065L42.0728 52.1145L42.0701 52.1224L43.017 52.444ZM45.957 57.06C45.5044 57.06 45.1108 56.9693 44.7606 56.7998L43.8894 58.6002C44.5312 58.9107 45.2256 59.06 45.957 59.06V57.06ZM44.778 56.8085C44.3998 56.6163 44.0817 56.3696 43.8157 56.0674L42.3143 57.3886C42.7523 57.8864 43.2742 58.2877 43.8719 58.5915L44.778 56.8085ZM43.8222 56.0748C43.5506 55.76 43.3388 55.4006 43.1871 54.9896L41.3109 55.6824C41.5432 56.3114 41.8754 56.88 42.3078 57.3812L43.8222 56.0748ZM43.1871 54.9896C43.0352 54.5784 42.961 54.1635 42.961 53.74H40.961C40.961 54.4045 41.0787 55.0536 41.3109 55.6824L43.1871 54.9896ZM42.961 53.74C42.961 53.2923 43.0393 52.8702 43.1943 52.467L41.3277 51.749C41.0827 52.3858 40.961 53.0517 40.961 53.74H42.961ZM43.1895 52.4794C43.3556 52.0642 43.5782 51.7059 43.8563 51.397L42.3697 50.059C41.9278 50.5501 41.5824 51.1118 41.3325 51.7366L43.1895 52.4794ZM43.8563 51.397C44.1277 51.0954 44.4449 50.8588 44.8144 50.6831L43.9556 48.8769C43.3491 49.1652 42.8183 49.5606 42.3697 50.059L43.8563 51.397ZM44.8263 50.6773C45.1709 50.5079 45.547 50.42 45.969 50.42V48.42C45.255 48.42 44.5751 48.5721 43.9437 48.8826L44.8263 50.6773ZM45.969 50.42C46.4115 50.42 46.7903 50.5143 47.1245 50.6895L48.0535 48.9185C47.4117 48.5817 46.7105 48.42 45.969 48.42V50.42ZM47.1418 50.6984C47.521 50.888 47.8316 51.1327 48.0845 51.4326L49.6135 50.1434C49.1784 49.6273 48.649 49.216 48.0362 48.9096L47.1418 50.6984ZM48.0918 51.4412C48.3634 51.756 48.5752 52.1154 48.7269 52.5264L50.6031 51.8336C50.3708 51.2046 50.0386 50.636 49.6062 50.1348L48.0918 51.4412ZM48.7287 52.5311C48.8794 52.9332 48.953 53.3384 48.953 53.752H50.953C50.953 53.0936 50.8346 52.4508 50.6013 51.8289L48.7287 52.5311ZM48.953 53.752C48.953 54.1946 48.8726 54.6124 48.7125 55.0126L50.5695 55.7554C50.8254 55.1156 50.953 54.4454 50.953 53.752H48.953ZM48.7077 55.025C48.55 55.435 48.3331 55.7891 48.0577 56.095L49.5443 57.433C49.9889 56.9389 50.332 56.373 50.5743 55.743L48.7077 55.025ZM48.057 56.0959C47.7931 56.3898 47.4768 56.6292 47.0997 56.8147L47.9823 58.6093C48.5812 58.3148 49.1049 57.9222 49.545 57.4321L48.057 56.0959ZM47.1116 56.8089C46.7647 56.9738 46.3843 57.06 45.957 57.06V59.06C46.6657 59.06 47.3413 58.9142 47.9704 58.6151L47.1116 56.8089ZM41.801 53.74C41.801 54.3155 41.8957 54.8758 42.0857 55.4159L43.9723 54.7521C43.8583 54.4282 43.801 54.0925 43.801 53.74H41.801ZM42.0877 55.4215C42.278 55.9524 42.5515 56.4355 42.9088 56.8642L44.4452 55.5838C44.2425 55.3405 44.084 55.0636 43.9703 54.7465L42.0877 55.4215ZM42.9164 56.8733C43.2801 57.2993 43.7137 57.6438 44.2111 57.9029L45.1349 56.1291C44.8643 55.9882 44.6339 55.8047 44.4376 55.5747L42.9164 56.8733ZM44.2258 57.9104C44.762 58.1785 45.3454 58.304 45.957 58.304V56.304C45.6246 56.304 45.352 56.2375 45.1202 56.1216L44.2258 57.9104ZM45.957 58.304C46.5867 58.304 47.1857 58.1661 47.7337 57.8753L46.7963 56.1087C46.5603 56.2339 46.2873 56.304 45.957 56.304V58.304ZM47.7337 57.8753C48.2414 57.606 48.6793 57.2486 49.0382 56.8052L47.4838 55.5468C47.2987 55.7754 47.0726 55.962 46.7963 56.1087L47.7337 57.8753ZM49.0382 56.8052C49.3872 56.3742 49.6513 55.8893 49.8319 55.3576L47.9381 54.7144C47.8307 55.0307 47.6788 55.3058 47.4838 55.5468L49.0382 56.8052ZM49.8263 55.3735C50.0162 54.8438 50.113 54.2978 50.113 53.74H48.113C48.113 54.0622 48.0578 54.3802 47.9437 54.6985L49.8263 55.3735ZM50.113 53.74C50.113 53.1583 50.0122 52.5945 49.8086 52.0549L47.9374 52.7611C48.0538 53.0695 48.113 53.3937 48.113 53.74H50.113ZM49.8163 52.0761C49.626 51.5352 49.3503 51.0461 48.9856 50.6187L47.4644 51.9173C47.6597 52.1459 47.816 52.4168 47.9297 52.7399L49.8163 52.0761ZM48.9856 50.6187C48.619 50.1893 48.1806 49.8458 47.6762 49.5936L46.7818 51.3824C47.0454 51.5142 47.271 51.6907 47.4644 51.9173L48.9856 50.6187ZM47.6909 49.6011C47.1542 49.3215 46.57 49.188 45.957 49.188V51.188C46.272 51.188 46.5358 51.2545 46.7671 51.3749L47.6909 49.6011ZM45.957 49.188C45.3273 49.188 44.7283 49.3259 44.1803 49.6167L45.1177 51.3833C45.3537 51.2581 45.6267 51.188 45.957 51.188V49.188ZM44.1945 49.6092C43.6801 49.8717 43.2375 50.228 42.8758 50.6748L44.4302 51.9332C44.6125 51.708 44.8339 51.5283 45.1035 51.3908L44.1945 49.6092ZM42.8758 50.6748C42.5301 51.1018 42.264 51.5812 42.0757 52.1065L43.9583 52.7815C44.074 52.4588 44.2319 52.1782 44.4302 51.9332L42.8758 50.6748ZM42.0701 52.1224C41.8916 52.6481 41.801 53.1887 41.801 53.74H43.801C43.801 53.4113 43.8544 53.0879 43.9639 52.7656L42.0701 52.1224ZM58.2567 47.008L59.2559 47.0496L59.2993 46.008H58.2567V47.008ZM57.7647 47.932L58.3579 48.7371L58.3614 48.7345L57.7647 47.932ZM55.2087 47.932L54.602 48.727L54.6137 48.7358L54.6255 48.7443L55.2087 47.932ZM54.7287 47.008V46.008H53.6862L53.7296 47.0496L54.7287 47.008ZM55.2447 47.008H56.2447V46.008H55.2447V47.008ZM55.3407 47.308L54.5087 47.8627L54.5087 47.8627L55.3407 47.308ZM56.0007 47.74L55.6996 48.6936L55.7227 48.7009L55.7462 48.7071L56.0007 47.74ZM57.3567 47.584L57.8975 48.4252L57.9047 48.4205L57.3567 47.584ZM57.7527 47.008V46.008H56.8812L56.7621 46.8714L57.7527 47.008ZM53.8167 56.74H52.8167V59.8152L54.6255 57.3282L53.8167 56.74ZM59.0967 49.48V48.48H58.5875L58.288 48.8918L59.0967 49.48ZM59.7927 49.48H60.7927V48.48H59.7927V49.48ZM59.7927 58V59H60.7927V58H59.7927ZM58.9527 58H57.9527V59H58.9527V58ZM58.9527 50.86H59.9527V47.7864L58.1442 50.2716L58.9527 50.86ZM53.7567 58V59H54.2658L54.5653 58.5884L53.7567 58ZM52.9887 58H51.9887V59H52.9887V58ZM52.9887 49.48V48.48H51.9887V49.48H52.9887ZM53.8167 49.48H54.8167V48.48H53.8167V49.48ZM57.2576 46.9664C57.2552 47.024 57.2437 47.0482 57.2391 47.057C57.2342 47.0661 57.2189 47.0917 57.168 47.1295L58.3614 48.7345C58.9122 48.3249 59.2271 47.739 59.2559 47.0496L57.2576 46.9664ZM57.1715 47.1269C57.1003 47.1795 56.9139 47.268 56.4927 47.268V49.268C57.1596 49.268 57.8212 49.1325 58.3579 48.7371L57.1715 47.1269ZM56.4927 47.268C56.0737 47.268 55.8764 47.1803 55.7919 47.1197L54.6255 48.7443C55.1651 49.1317 55.8237 49.268 56.4927 49.268V47.268ZM55.8154 47.137C55.7684 47.1012 55.7536 47.0766 55.7481 47.066C55.7426 47.0553 55.7304 47.0279 55.7279 46.9664L53.7296 47.0496C53.7579 47.7289 54.0604 48.3136 54.602 48.727L55.8154 47.137ZM54.7287 48.008H55.2447V46.008H54.7287V48.008ZM54.2447 47.008C54.2447 47.3307 54.3476 47.6211 54.5087 47.8627L56.1728 46.7533C56.1873 46.775 56.2062 46.8095 56.2211 46.8562C56.2364 46.9038 56.2447 46.9556 56.2447 47.008H54.2447ZM54.5087 47.8627C54.6599 48.0895 54.8539 48.2661 55.064 48.4012L56.1455 46.7188C56.138 46.714 56.1391 46.7138 56.1452 46.7196C56.1516 46.7257 56.1618 46.7368 56.1728 46.7533L54.5087 47.8627ZM55.064 48.4012C55.2635 48.5294 55.4791 48.624 55.6996 48.6936L56.3019 46.7864C56.2183 46.76 56.17 46.7346 56.1455 46.7188L55.064 48.4012ZM55.7462 48.7071C55.994 48.7723 56.249 48.8 56.5047 48.8V46.8C56.3924 46.8 56.3114 46.7877 56.2552 46.7729L55.7462 48.7071ZM56.5047 48.8C56.9852 48.8 57.4713 48.6992 57.8975 48.4252L56.816 46.7428C56.7942 46.7568 56.7122 46.8 56.5047 46.8V48.8ZM57.9047 48.4205C58.3295 48.1422 58.6645 47.7162 58.7433 47.1446L56.7621 46.8714C56.7644 46.855 56.769 46.8351 56.7773 46.8138C56.7856 46.7924 56.7957 46.774 56.8057 46.7595C56.8259 46.7301 56.8363 46.7294 56.8087 46.7475L57.9047 48.4205ZM57.7527 48.008H58.2567V46.008H57.7527V48.008ZM54.6255 57.3282L59.9055 50.0682L58.288 48.8918L53.008 56.1518L54.6255 57.3282ZM59.0967 50.48H59.7927V48.48H59.0967V50.48ZM58.7927 49.48V58H60.7927V49.48H58.7927ZM59.7927 57H58.9527V59H59.7927V57ZM59.9527 58V50.86H57.9527V58H59.9527ZM58.1442 50.2716L52.9482 57.4116L54.5653 58.5884L59.7613 51.4484L58.1442 50.2716ZM53.7567 57H52.9887V59H53.7567V57ZM53.9887 58V49.48H51.9887V58H53.9887ZM52.9887 50.48H53.8167V48.48H52.9887V50.48ZM52.8167 49.48V56.74H54.8167V49.48H52.8167ZM68.7319 53.26H67.7319V54.26H68.7319V53.26ZM70.0279 53.26V54.26H70.5333L70.8331 53.853L70.0279 53.26ZM72.8119 49.48V48.48H72.3064L72.0067 48.887L72.8119 49.48ZM73.7719 49.48L74.5803 50.0686L75.7369 48.48H73.7719V49.48ZM70.7839 53.584L69.9754 52.9954L69.5413 53.5917L69.9828 54.1826L70.7839 53.584ZM74.0839 58V59H76.0795L74.8849 57.4014L74.0839 58ZM73.1239 58L72.3265 58.6034L72.6266 59H73.1239V58ZM70.0999 54.004L70.8973 53.4006L70.5972 53.004H70.0999V54.004ZM68.7319 54.004V53.004H67.7319V54.004H68.7319ZM68.7319 58V59H69.7319V58H68.7319ZM67.9039 58H66.9039V59H67.9039V58ZM67.9039 49.48V48.48H66.9039V49.48H67.9039ZM68.7319 49.48H69.7319V48.48H68.7319V49.48ZM68.7319 54.26H70.0279V52.26H68.7319V54.26ZM70.8331 53.853L73.6171 50.073L72.0067 48.887L69.2227 52.667L70.8331 53.853ZM72.8119 50.48H73.7719V48.48H72.8119V50.48ZM72.9634 48.8914L69.9754 52.9954L71.5923 54.1726L74.5803 50.0686L72.9634 48.8914ZM69.9828 54.1826L73.2828 58.5986L74.8849 57.4014L71.5849 52.9854L69.9828 54.1826ZM74.0839 57H73.1239V59H74.0839V57ZM73.9213 57.3966L70.8973 53.4006L69.3025 54.6074L72.3265 58.6034L73.9213 57.3966ZM70.0999 53.004H68.7319V55.004H70.0999V53.004ZM67.7319 54.004V58H69.7319V54.004H67.7319ZM68.7319 57H67.9039V59H68.7319V57ZM68.9039 58V49.48H66.9039V58H68.9039ZM67.9039 50.48H68.7319V48.48H67.9039V50.48ZM67.7319 49.48V53.26H69.7319V49.48H67.7319ZM78.0225 57.7L77.5695 58.5915L77.5782 58.5959L77.5869 58.6002L78.0225 57.7ZM76.7625 56.728L76.0053 57.3813L76.0118 57.3886L76.7625 56.728ZM75.9465 55.336L76.8846 54.9896L76.8846 54.9896L75.9465 55.336ZM75.9585 52.108L75.0299 51.7366L75.0252 51.749L75.9585 52.108ZM76.8105 50.728L77.5538 51.397L77.5538 51.397L76.8105 50.728ZM78.0825 49.78L78.5119 50.6832L78.5238 50.6773L78.0825 49.78ZM81.2865 49.804L80.822 50.6895L80.8306 50.6941L80.8393 50.6984L81.2865 49.804ZM82.5465 50.788L81.7819 51.4326L81.7893 51.4412L82.5465 50.788ZM83.3625 52.18L82.4244 52.5264L82.4262 52.5311L83.3625 52.18ZM83.3385 55.384L82.4099 55.0126L82.4052 55.025L83.3385 55.384ZM82.4985 56.764L81.7552 56.095L81.7545 56.0959L82.4985 56.764ZM81.2385 57.712L81.6679 58.6152L81.6798 58.6093L81.2385 57.712ZM76.7265 55.084L75.7832 55.4159L75.7852 55.4215L76.7265 55.084ZM77.3745 56.224L76.6062 56.8642L76.6139 56.8733L77.3745 56.224ZM78.3705 57.016L77.9086 57.9029L77.9159 57.9067L77.9233 57.9104L78.3705 57.016ZM80.9625 56.992L80.4938 56.1087L80.4938 56.1087L80.9625 56.992ZM81.9585 56.176L81.1813 55.5468L81.1813 55.5468L81.9585 56.176ZM82.5825 55.036L81.6412 54.6985L81.6383 54.7065L81.6356 54.7144L82.5825 55.036ZM82.5705 52.408L81.6272 52.7399L81.6309 52.7505L81.6349 52.7611L82.5705 52.408ZM81.9225 51.268L81.1619 51.9173L81.1619 51.9173L81.9225 51.268ZM80.9265 50.488L80.4646 51.3749L80.4719 51.3787L80.4793 51.3824L80.9265 50.488ZM78.3465 50.5L78.801 51.3908L78.8081 51.3871L78.8152 51.3833L78.3465 50.5ZM77.3505 51.304L78.1277 51.9332L78.1277 51.9332L77.3505 51.304ZM76.7145 52.444L75.7732 52.1065L75.7703 52.1145L75.7676 52.1224L76.7145 52.444ZM79.6545 57.06C79.2019 57.06 78.8083 56.9693 78.4581 56.7998L77.5869 58.6002C78.2287 58.9107 78.9231 59.06 79.6545 59.06V57.06ZM78.4756 56.8085C78.0973 56.6163 77.7792 56.3696 77.5132 56.0674L76.0118 57.3886C76.4498 57.8864 76.9717 58.2877 77.5695 58.5915L78.4756 56.8085ZM77.5197 56.0748C77.2481 55.76 77.0363 55.4006 76.8846 54.9896L75.0084 55.6824C75.2407 56.3114 75.5729 56.88 76.0053 57.3812L77.5197 56.0748ZM76.8846 54.9896C76.7328 54.5784 76.6585 54.1635 76.6585 53.74H74.6585C74.6585 54.4045 74.7763 55.0536 75.0084 55.6824L76.8846 54.9896ZM76.6585 53.74C76.6585 53.2923 76.7368 52.8702 76.8918 52.467L75.0252 51.749C74.7802 52.3858 74.6585 53.0517 74.6585 53.74H76.6585ZM76.887 52.4794C77.0531 52.0642 77.2757 51.7059 77.5538 51.397L76.0672 50.059C75.6253 50.5501 75.2799 51.1118 75.03 51.7366L76.887 52.4794ZM77.5538 51.397C77.8252 51.0954 78.1424 50.8588 78.5119 50.6831L77.6531 48.8769C77.0466 49.1652 76.5158 49.5606 76.0672 50.059L77.5538 51.397ZM78.5238 50.6773C78.8684 50.5079 79.2445 50.42 79.6665 50.42V48.42C78.9525 48.42 78.2726 48.5721 77.6412 48.8826L78.5238 50.6773ZM79.6665 50.42C80.109 50.42 80.4878 50.5143 80.822 50.6895L81.7511 48.9185C81.1092 48.5817 80.408 48.42 79.6665 48.42V50.42ZM80.8393 50.6984C81.2185 50.888 81.5291 51.1327 81.782 51.4326L83.311 50.1434C82.8759 49.6273 82.3465 49.216 81.7337 48.9096L80.8393 50.6984ZM81.7893 51.4412C82.0609 51.756 82.2727 52.1154 82.4244 52.5264L84.3006 51.8336C84.0683 51.2046 83.7361 50.636 83.3037 50.1348L81.7893 51.4412ZM82.4262 52.5311C82.5769 52.9332 82.6505 53.3384 82.6505 53.752H84.6505C84.6505 53.0936 84.5321 52.4508 84.2988 51.8289L82.4262 52.5311ZM82.6505 53.752C82.6505 54.1946 82.5701 54.6124 82.41 55.0126L84.267 55.7554C84.5229 55.1156 84.6505 54.4454 84.6505 53.752H82.6505ZM82.4052 55.025C82.2475 55.435 82.0306 55.7891 81.7552 56.095L83.2418 57.433C83.6864 56.9389 84.0295 56.373 84.2718 55.743L82.4052 55.025ZM81.7545 56.0959C81.4906 56.3898 81.1743 56.6292 80.7972 56.8147L81.6798 58.6093C82.2787 58.3148 82.8024 57.9222 83.2426 57.4321L81.7545 56.0959ZM80.8091 56.8089C80.4622 56.9738 80.0818 57.06 79.6545 57.06V59.06C80.3632 59.06 81.0388 58.9142 81.6679 58.6151L80.8091 56.8089ZM75.4985 53.74C75.4985 54.3155 75.5932 54.8758 75.7832 55.4159L77.6698 54.7521C77.5558 54.4282 77.4985 54.0925 77.4985 53.74H75.4985ZM75.7852 55.4215C75.9755 55.9524 76.2491 56.4355 76.6063 56.8642L78.1427 55.5838C77.94 55.3405 77.7815 55.0636 77.6678 54.7465L75.7852 55.4215ZM76.6139 56.8733C76.9776 57.2993 77.4112 57.6438 77.9086 57.9029L78.8324 56.1291C78.5619 55.9882 78.3314 55.8047 78.1351 55.5747L76.6139 56.8733ZM77.9233 57.9104C78.4595 58.1785 79.0429 58.304 79.6545 58.304V56.304C79.3221 56.304 79.0495 56.2375 78.8177 56.1216L77.9233 57.9104ZM79.6545 58.304C80.2842 58.304 80.8832 58.1661 81.4312 57.8753L80.4938 56.1087C80.2578 56.2339 79.9848 56.304 79.6545 56.304V58.304ZM81.4312 57.8753C81.9389 57.606 82.3768 57.2486 82.7357 56.8052L81.1813 55.5468C80.9962 55.7754 80.7701 55.962 80.4938 56.1087L81.4312 57.8753ZM82.7357 56.8052C83.0847 56.3742 83.3488 55.8893 83.5294 55.3576L81.6356 54.7144C81.5282 55.0307 81.3764 55.3058 81.1813 55.5468L82.7357 56.8052ZM83.5238 55.3735C83.7137 54.8438 83.8105 54.2978 83.8105 53.74H81.8105C81.8105 54.0622 81.7553 54.3802 81.6412 54.6985L83.5238 55.3735ZM83.8105 53.74C83.8105 53.1583 83.7097 52.5945 83.5061 52.0549L81.6349 52.7611C81.7513 53.0695 81.8105 53.3937 81.8105 53.74H83.8105ZM83.5138 52.0761C83.3235 51.5352 83.0478 51.0461 82.6831 50.6187L81.1619 51.9173C81.3572 52.1459 81.5135 52.4168 81.6272 52.7399L83.5138 52.0761ZM82.6831 50.6187C82.3165 50.1893 81.8781 49.8458 81.3737 49.5936L80.4793 51.3824C80.7429 51.5142 80.9685 51.6907 81.1619 51.9173L82.6831 50.6187ZM81.3884 49.6011C80.8517 49.3215 80.2675 49.188 79.6545 49.188V51.188C79.9695 51.188 80.2333 51.2545 80.4646 51.3749L81.3884 49.6011ZM79.6545 49.188C79.0248 49.188 78.4258 49.3259 77.8778 49.6167L78.8152 51.3833C79.0512 51.2581 79.3242 51.188 79.6545 51.188V49.188ZM77.892 49.6092C77.3776 49.8717 76.935 50.228 76.5733 50.6748L78.1277 51.9332C78.31 51.708 78.5314 51.5283 78.801 51.3908L77.892 49.6092ZM76.5733 50.6748C76.2276 51.1018 75.9615 51.5812 75.7732 52.1065L77.6558 52.7815C77.7715 52.4588 77.9294 52.1782 78.1277 51.9332L76.5733 50.6748ZM75.7676 52.1224C75.5891 52.6481 75.4985 53.1887 75.4985 53.74H77.4985C77.4985 53.4113 77.5519 53.0879 77.6614 52.7656L75.7676 52.1224ZM94.2222 58H93.2222V59H94.2222V58ZM94.2222 51.004H95.2222V47.2547L93.355 50.506L94.2222 51.004ZM91.1142 56.416V57.416H91.6931L91.9814 56.914L91.1142 56.416ZM90.6222 56.416L89.755 56.914L90.0433 57.416H90.6222V56.416ZM87.5142 51.004L88.3814 50.506L86.5142 47.2547V51.004H87.5142ZM87.5142 58V59H88.5142V58H87.5142ZM86.6742 58H85.6742V59H86.6742V58ZM86.6742 49.48V48.48H85.6742V49.48H86.6742ZM87.5382 49.48L88.407 48.9848L88.1193 48.48H87.5382V49.48ZM90.8622 55.312L89.9934 55.8072L90.8591 57.326L91.7295 55.8099L90.8622 55.312ZM94.2102 49.48V48.48H93.6312L93.343 48.9821L94.2102 49.48ZM95.0622 49.48H96.0622V48.48H95.0622V49.48ZM95.0622 58V59H96.0622V58H95.0622ZM95.2222 58V51.004H93.2222V58H95.2222ZM93.355 50.506L90.247 55.918L91.9814 56.914L95.0894 51.502L93.355 50.506ZM91.1142 55.416H90.6222V57.416H91.1142V55.416ZM91.4894 55.918L88.3814 50.506L86.647 51.502L89.755 56.914L91.4894 55.918ZM86.5142 51.004V58H88.5142V51.004H86.5142ZM87.5142 57H86.6742V59H87.5142V57ZM87.6742 58V49.48H85.6742V58H87.6742ZM86.6742 50.48H87.5382V48.48H86.6742V50.48ZM86.6694 49.9752L89.9934 55.8072L91.731 54.8168L88.407 48.9848L86.6694 49.9752ZM91.7295 55.8099L95.0775 49.9779L93.343 48.9821L89.995 54.8141L91.7295 55.8099ZM94.2102 50.48H95.0622V48.48H94.2102V50.48ZM94.0622 49.48V58H96.0622V49.48H94.0622ZM95.0622 57H94.2222V59H95.0622V57ZM98.6848 49.48V48.48H97.6848V49.48H98.6848ZM105.261 49.48H106.261V48.48H105.261V49.48ZM105.261 58V59H106.261V58H105.261ZM104.421 58H103.421V59H104.421V58ZM104.421 50.224H105.421V49.224H104.421V50.224ZM99.5128 50.224V49.224H98.5128V50.224H99.5128ZM99.5128 58V59H100.513V58H99.5128ZM98.6848 58H97.6848V59H98.6848V58ZM98.6848 50.48H105.261V48.48H98.6848V50.48ZM104.261 49.48V58H106.261V49.48H104.261ZM105.261 57H104.421V59H105.261V57ZM105.421 58V50.224H103.421V58H105.421ZM104.421 49.224H99.5128V51.224H104.421V49.224ZM98.5128 50.224V58H100.513V50.224H98.5128ZM99.5128 57H98.6848V59H99.5128V57ZM99.6848 58V49.48H97.6848V58H99.6848ZM110.787 51.736L111.783 51.8208L111.784 51.8151L110.787 51.736ZM110.415 54.628L109.433 54.4413L109.431 54.4508L110.415 54.628ZM109.863 56.596L108.947 56.1952L108.944 56.2021L109.863 56.596ZM109.071 57.712L109.678 58.507L109.681 58.5046L109.071 57.712ZM107.991 58.06L107.007 58.2363L107.154 59.06H107.991V58.06ZM107.847 57.256L107.797 56.2572L106.662 56.314L106.863 57.4323L107.847 57.256ZM108.303 57.16L107.957 56.2217L107.949 56.2248L107.941 56.228L108.303 57.16ZM108.735 56.86L109.462 57.5466L109.471 57.5368L109.48 57.5268L108.735 56.86ZM109.119 56.248L110.025 56.6725L110.029 56.6618L109.119 56.248ZM109.455 55.24L110.424 55.487L110.425 55.4825L109.455 55.24ZM109.731 53.74L108.742 53.591L108.74 53.6043L109.731 53.74ZM109.959 51.664L108.962 51.5819L108.962 51.5843L109.959 51.664ZM110.139 49.48V48.48H109.218L109.142 49.3979L110.139 49.48ZM114.471 49.48H115.471V48.48H114.471V49.48ZM114.471 58V59H115.471V58H114.471ZM113.643 58H112.643V59H113.643V58ZM113.643 50.224H114.643V49.224H113.643V50.224ZM110.907 50.224V49.224H109.983L109.91 50.1449L110.907 50.224ZM109.791 51.6512C109.696 52.7571 109.576 53.6852 109.433 54.4413L111.397 54.8147C111.558 53.9708 111.686 52.9709 111.783 51.8208L109.791 51.6512ZM109.431 54.4508C109.295 55.2053 109.129 55.7791 108.947 56.1952L110.779 56.9968C111.045 56.3889 111.247 55.6507 111.399 54.8052L109.431 54.4508ZM108.944 56.2021C108.77 56.6076 108.595 56.8166 108.461 56.9194L109.681 58.5046C110.171 58.1274 110.524 57.5924 110.782 56.9899L108.944 56.2021ZM108.464 56.917C108.35 57.0042 108.208 57.06 107.991 57.06V59.06C108.606 59.06 109.184 58.8838 109.678 58.507L108.464 56.917ZM108.975 57.8837L108.831 57.0797L106.863 57.4323L107.007 58.2363L108.975 57.8837ZM107.897 58.2548C108.16 58.2416 108.418 58.1883 108.665 58.092L107.941 56.228C107.9 56.2437 107.854 56.2544 107.797 56.2572L107.897 58.2548ZM108.649 58.0983C108.974 57.9784 109.243 57.7783 109.462 57.5466L108.008 56.1734C107.955 56.2297 107.936 56.2296 107.957 56.2217L108.649 58.0983ZM109.48 57.5268C109.701 57.2803 109.878 56.9853 110.024 56.6724L108.214 55.8236C108.12 56.0227 108.041 56.1357 107.99 56.1932L109.48 57.5268ZM110.029 56.6618C110.182 56.3259 110.311 55.9291 110.424 55.487L108.486 54.993C108.391 55.3669 108.296 55.6421 108.209 55.8342L110.029 56.6618ZM110.425 55.4825C110.541 55.0211 110.639 54.4834 110.722 53.8757L108.74 53.6043C108.663 54.1646 108.577 54.6269 108.485 54.9975L110.425 55.4825ZM110.72 53.889C110.812 53.2755 110.891 52.5593 110.956 51.7437L108.962 51.5843C108.899 52.3687 108.826 53.0365 108.742 53.591L110.72 53.889ZM110.956 51.7461L111.136 49.5621L109.142 49.3979L108.962 51.5819L110.956 51.7461ZM110.139 50.48H114.471V48.48H110.139V50.48ZM113.471 49.48V58H115.471V49.48H113.471ZM114.471 57H113.643V59H114.471V57ZM114.643 58V50.224H112.643V58H114.643ZM113.643 49.224H110.907V51.224H113.643V49.224ZM109.91 50.1449L109.79 51.6569L111.784 51.8151L111.904 50.3031L109.91 50.1449ZM123.824 57.256H124.824V56.256H123.824V57.256ZM123.824 58V59H124.824V58H123.824ZM118.1 58H117.1V59H118.1V58ZM118.1 49.48V48.48H117.1V49.48H118.1ZM123.716 49.48H124.716V48.48H123.716V49.48ZM123.716 50.224V51.224H124.716V50.224H123.716ZM118.94 50.224V49.224H117.94V50.224H118.94ZM118.94 53.296H117.94V54.296H118.94V53.296ZM123.104 53.296H124.104V52.296H123.104V53.296ZM123.104 54.004V55.004H124.104V54.004H123.104ZM118.94 54.004V53.004H117.94V54.004H118.94ZM118.94 57.256H117.94V58.256H118.94V57.256ZM122.824 57.256V58H124.824V57.256H122.824ZM123.824 57H118.1V59H123.824V57ZM119.1 58V49.48H117.1V58H119.1ZM118.1 50.48H123.716V48.48H118.1V50.48ZM122.716 49.48V50.224H124.716V49.48H122.716ZM123.716 49.224H118.94V51.224H123.716V49.224ZM117.94 50.224V53.296H119.94V50.224H117.94ZM118.94 54.296H123.104V52.296H118.94V54.296ZM122.104 53.296V54.004H124.104V53.296H122.104ZM123.104 53.004H118.94V55.004H123.104V53.004ZM117.94 54.004V57.256H119.94V54.004H117.94ZM118.94 58.256H123.824V56.256H118.94V58.256ZM127.692 53.26H126.692V54.26H127.692V53.26ZM128.988 53.26V54.26H129.494L129.793 53.853L128.988 53.26ZM131.772 49.48V48.48H131.267L130.967 48.887L131.772 49.48ZM132.732 49.48L133.541 50.0686L134.697 48.48H132.732V49.48ZM129.744 53.584L128.936 52.9954L128.502 53.5917L128.943 54.1826L129.744 53.584ZM133.044 58V59H135.04L133.845 57.4014L133.044 58ZM132.084 58L131.287 58.6034L131.587 59H132.084V58ZM129.06 54.004L129.858 53.4006L129.557 53.004H129.06V54.004ZM127.692 54.004V53.004H126.692V54.004H127.692ZM127.692 58V59H128.692V58H127.692ZM126.864 58H125.864V59H126.864V58ZM126.864 49.48V48.48H125.864V49.48H126.864ZM127.692 49.48H128.692V48.48H127.692V49.48ZM127.692 54.26H128.988V52.26H127.692V54.26ZM129.793 53.853L132.577 50.073L130.967 48.887L128.183 52.667L129.793 53.853ZM131.772 50.48H132.732V48.48H131.772V50.48ZM131.924 48.8914L128.936 52.9954L130.553 54.1726L133.541 50.0686L131.924 48.8914ZM128.943 54.1826L132.243 58.5986L133.845 57.4014L130.545 52.9854L128.943 54.1826ZM133.044 57H132.084V59H133.044V57ZM132.882 57.3966L129.858 53.4006L128.263 54.6074L131.287 58.6034L132.882 57.3966ZM129.06 53.004H127.692V55.004H129.06V53.004ZM126.692 54.004V58H128.692V54.004H126.692ZM127.692 57H126.864V59H127.692V57ZM127.864 58V49.48H125.864V58H127.864ZM126.864 50.48H127.692V48.48H126.864V50.48ZM126.692 49.48V53.26H128.692V49.48H126.692ZM134.871 52.156L133.93 51.8178L133.927 51.8263L134.871 52.156ZM135.663 50.788L136.421 51.44L136.421 51.44L135.663 50.788ZM136.935 49.816L137.376 50.7133L137.388 50.7076L136.935 49.816ZM140.595 49.948L140.055 50.7896L140.06 50.7932L140.595 49.948ZM141.795 51.292L142.321 52.1426L143.075 51.6761L142.702 50.8713L141.795 51.292ZM141.135 51.7L140.235 52.1369L140.719 53.1327L141.661 52.5506L141.135 51.7ZM140.631 50.992L139.924 51.6991L139.931 51.7063L139.938 51.7134L140.631 50.992ZM140.007 50.524L139.535 51.4055L139.535 51.4055L140.007 50.524ZM139.311 50.272L139.084 51.2458L139.099 51.2495L139.115 51.2526L139.311 50.272ZM137.247 50.5L137.716 51.3833L137.716 51.3833L137.247 50.5ZM136.251 51.316L135.474 50.6868L135.469 50.6925L135.464 50.6982L136.251 51.316ZM135.651 52.456L136.601 52.7667L136.603 52.7614L135.651 52.456ZM135.687 55.084L134.749 55.4313L134.752 55.4389L134.755 55.4464L135.687 55.084ZM136.359 56.236L135.591 56.8762L135.599 56.8861L135.607 56.8958L136.359 56.236ZM137.367 57.028L136.905 57.9149L136.916 57.9206L136.927 57.9261L137.367 57.028ZM139.371 57.232L139.591 58.2074L139.602 58.2049L139.613 58.2021L139.371 57.232ZM140.103 56.944L140.586 57.8196L140.596 57.814L140.103 56.944ZM140.763 56.452L141.455 57.1734L141.463 57.1663L141.47 57.1591L140.763 56.452ZM141.267 55.732L141.726 54.8438L140.815 54.3726L140.367 55.2951L141.267 55.732ZM141.963 56.092L142.883 56.4831L143.246 55.6298L142.422 55.2038L141.963 56.092ZM141.387 56.944L142.082 57.6626L142.088 57.6569L142.094 57.6511L141.387 56.944ZM140.559 57.556L141.042 58.4312L141.043 58.4312L140.559 57.556ZM139.587 57.94L139.339 56.9712L139.333 56.9726L139.587 57.94ZM136.983 57.688L136.518 58.5735L136.518 58.5735L136.983 57.688ZM135.723 56.692L134.959 57.338L134.966 57.3452L135.723 56.692ZM134.895 55.288L133.955 55.6297L133.958 55.6384L133.961 55.647L134.895 55.288ZM135.607 53.68C135.607 53.285 135.674 52.8883 135.815 52.4857L133.927 51.8263C133.715 52.4317 133.607 53.051 133.607 53.68H135.607ZM135.812 52.4942C135.956 52.0934 136.159 51.7446 136.421 51.44L134.905 50.136C134.479 50.6314 134.154 51.1946 133.93 51.8178L135.812 52.4942ZM136.421 51.44C136.671 51.1488 136.985 50.9056 137.376 50.7133L136.493 48.9187C135.876 49.2224 135.342 49.6272 134.905 50.136L136.421 51.44ZM137.388 50.7076C137.734 50.5318 138.147 50.432 138.651 50.432V48.432C137.874 48.432 137.144 48.5882 136.482 48.9244L137.388 50.7076ZM138.651 50.432C139.257 50.432 139.709 50.5676 140.055 50.7896L141.135 49.1064C140.409 48.6404 139.565 48.432 138.651 48.432V50.432ZM140.06 50.7932C140.452 51.0407 140.717 51.3454 140.888 51.7127L142.702 50.8713C142.36 50.1346 141.826 49.5433 141.129 49.1028L140.06 50.7932ZM141.269 50.4414L140.609 50.8494L141.661 52.5506L142.321 52.1426L141.269 50.4414ZM142.034 51.2631C141.853 50.8897 141.618 50.5539 141.323 50.2706L139.938 51.7134C140.043 51.8141 140.145 51.9503 140.235 52.1369L142.034 51.2631ZM141.338 50.2849C141.081 50.0283 140.795 49.8119 140.479 49.6425L139.535 51.4055C139.666 51.4761 139.796 51.5717 139.924 51.6991L141.338 50.2849ZM140.479 49.6425C140.172 49.4779 139.847 49.3594 139.507 49.2914L139.115 51.2526C139.255 51.2806 139.394 51.3301 139.535 51.4055L140.479 49.6425ZM139.538 49.2982C139.228 49.2259 138.916 49.188 138.603 49.188V51.188C138.754 51.188 138.913 51.2061 139.084 51.2458L139.538 49.2982ZM138.603 49.188C137.953 49.188 137.335 49.321 136.778 49.6167L137.716 51.3833C137.942 51.263 138.229 51.188 138.603 51.188V49.188ZM136.778 49.6167C136.27 49.886 135.833 50.2434 135.474 50.6868L137.028 51.9452C137.213 51.7166 137.439 51.53 137.716 51.3833L136.778 49.6167ZM135.464 50.6982C135.124 51.1315 134.869 51.6182 134.699 52.1506L136.603 52.7614C136.704 52.4458 136.85 52.1725 137.037 51.9338L135.464 50.6982ZM134.7 52.1453C134.532 52.6602 134.447 53.1891 134.447 53.728H136.447C136.447 53.4029 136.498 53.0838 136.601 52.7667L134.7 52.1453ZM134.447 53.728C134.447 54.3156 134.547 54.8854 134.749 55.4313L136.625 54.7367C136.507 54.4186 136.447 54.0844 136.447 53.728H134.447ZM134.755 55.4464C134.96 55.9732 135.237 56.4522 135.591 56.8762L137.127 55.5958C136.92 55.3478 136.75 55.0588 136.619 54.7216L134.755 55.4464ZM135.607 56.8958C135.976 57.316 136.41 57.6573 136.905 57.9149L137.829 56.1411C137.555 55.9987 137.317 55.812 137.11 55.5762L135.607 56.8958ZM136.927 57.9261C137.462 58.1881 138.037 58.316 138.639 58.316V56.316C138.328 56.316 138.056 56.2519 137.807 56.1299L136.927 57.9261ZM138.639 58.316C138.957 58.316 139.275 58.2788 139.591 58.2074L139.151 56.2566C138.971 56.2972 138.8 56.316 138.639 56.316V58.316ZM139.613 58.2021C139.954 58.1171 140.278 57.9892 140.586 57.8196L139.62 56.0684C139.463 56.1548 139.3 56.2189 139.128 56.2619L139.613 58.2021ZM140.596 57.814C140.909 57.6368 141.196 57.4228 141.455 57.1734L140.07 55.7306C139.93 55.8652 139.777 55.9792 139.61 56.074L140.596 57.814ZM141.47 57.1591C141.756 56.8729 141.987 56.539 142.166 56.1689L140.367 55.2951C140.275 55.485 140.169 55.6311 140.056 55.7449L141.47 57.1591ZM140.807 56.6202L141.503 56.9802L142.422 55.2038L141.726 54.8438L140.807 56.6202ZM141.042 55.7009C140.957 55.9018 140.838 56.0788 140.68 56.2369L142.094 57.6511C142.432 57.3132 142.697 56.9222 142.883 56.4831L141.042 55.7009ZM140.691 56.2254C140.507 56.4037 140.302 56.5551 140.075 56.6808L141.043 58.4312C141.423 58.2209 141.77 57.9643 142.082 57.6626L140.691 56.2254ZM140.075 56.6808C139.847 56.8068 139.603 56.9038 139.339 56.9712L139.835 58.9088C140.259 58.8002 140.663 58.6412 141.042 58.4312L140.075 56.6808ZM139.333 56.9726C139.075 57.0402 138.828 57.072 138.591 57.072V59.072C139.009 59.072 139.426 59.0158 139.84 58.9074L139.333 56.9726ZM138.591 57.072C138.159 57.072 137.783 56.9788 137.447 56.8025L136.518 58.5735C137.158 58.9092 137.855 59.072 138.591 59.072V57.072ZM137.447 56.8025C137.068 56.6035 136.748 56.3495 136.48 56.0388L134.966 57.3452C135.402 57.8505 135.922 58.2605 136.518 58.5735L137.447 56.8025ZM136.486 56.0461C136.208 55.7174 135.989 55.3469 135.828 54.929L133.961 55.647C134.201 56.2691 134.533 56.8346 134.959 57.3379L136.486 56.0461ZM135.835 54.9463C135.681 54.5241 135.607 54.1036 135.607 53.68H133.607C133.607 54.3444 133.725 54.9958 133.955 55.6297L135.835 54.9463Z" fill="black" mask="url(#path-3-outside-2_1_14)"/>
</svg>
